<?xml version="1.0" encoding="UTF-8" standalone="no"?>
<svg width="30px" height="29px" viewBox="0 0 30 29" version="1.1" xmlns="http://www.w3.org/2000/svg" xmlns:xlink="http://www.w3.org/1999/xlink" xmlns:sketch="http://www.bohemiancoding.com/sketch/ns">
    <!-- Generator: Sketch 3.3.2 (12043) - http://www.bohemiancoding.com/sketch -->
    <title>icon_youzheng</title>
    <desc>Created with Sketch.</desc>
    <defs></defs>
    <g id="切图" stroke="none" stroke-width="1" fill="none" fill-rule="evenodd" sketch:type="MSPage">
        <path d="M2.75389525,15.9586534 L2.60840999,16.7934108 L6.95607284,16.7934108 L7.14942745,15.9586534 L2.75389525,15.9586534 L2.75389525,15.9586534 Z M13.816407,16.7934108 L13.9618922,15.9586534 L9.03416557,15.9586534 L8.84081096,16.7934108 L13.816407,16.7934108 L13.816407,16.7934108 Z M16.5703022,12.5700154 L15.8935611,15.9586534 L15.7002065,16.7934108 L15.024404,20.1810948 L13.1396659,20.1810948 L8.16406983,20.1810948 L8.01952318,20.9662438 L16.0390464,20.9662438 L17.1015581,15.9586534 L17.7773606,12.5700154 L19.6620987,12.5700154 L27.39159,12.5700154 L26.6669795,15.9586534 L18.9853576,15.9586534 L17.2461047,24.3548818 L15.3623052,24.3548818 L7.29491271,24.3548818 L7.14942745,25.1400308 L18.3095551,25.1400308 L19.3720668,20.1810948 L20.0478693,16.7934108 L21.9804768,16.7934108 L26.5214943,16.7934108 L25.8456918,20.1810948 L21.2558663,20.1810948 L20.241224,25.1400308 L19.5166135,28.5286688 L17.632814,28.5286688 L4.54101746,28.5286688 L6.28027032,20.1810948 L1.88379951,20.1810948 L0,20.1810948 L0.724610475,16.7934108 L0.869157124,15.9586534 L1.59470621,12.5700154 L3.47850573,12.5700154 L7.82616858,12.5700154 L9.56542144,4.22339542 L11.4492209,4.22339542 L16.424817,4.22339542 L17.2949127,0 L17.8740379,0 L30,0 L29.2753895,3.38863803 L18.4541017,3.38863803 L18.3095551,4.22339542 L17.632814,7.61107944 L15.7002065,7.61107944 L10.7724798,7.61107944 L10.5800638,8.3962284 L18.6474564,8.3962284 L18.792003,7.61107944 L19.5166135,4.22339542 L21.400413,4.22339542 L29.1299043,4.22339542 L28.4062324,7.61107944 L20.7246105,7.61107944 L19.8554534,11.7848664 L17.9707152,11.7848664 L9.9033227,11.7848664 L9.70996809,12.5700154 L14.6855641,12.5700154 L16.5703022,12.5700154 L16.5703022,12.5700154 Z" id="icon_youzheng" fill="#138247" sketch:type="MSShapeGroup"></path>
    </g>
</svg>