<?xml version="1.0" encoding="UTF-8" standalone="no"?>
<svg width="32px" height="32px" viewBox="0 0 32 32" version="1.1" xmlns="http://www.w3.org/2000/svg" xmlns:xlink="http://www.w3.org/1999/xlink" xmlns:sketch="http://www.bohemiancoding.com/sketch/ns">
    <!-- Generator: Sketch 3.3.2 (12043) - http://www.bohemiancoding.com/sketch -->
    <title>Imported Layers</title>
    <desc>Created with Sketch.</desc>
    <defs></defs>
    <g id="切图" stroke="none" stroke-width="1" fill="none" fill-rule="evenodd" sketch:type="MSPage">
        <path d="M30.93,20.0706667 C31.3346667,18.67 31.5526667,17.2386667 31.5526667,15.7446667 C31.5526667,11.42 29.9966667,7.686 26.916,4.636 C23.8353333,1.556 20.0706667,0 15.776,0 C11.42,0 7.71666667,1.556 4.636,4.636 C1.55533333,7.686 0,11.42 0,15.7446667 C0,20.0706667 1.55533333,23.8353333 4.636,26.916 C7.71666667,29.9966667 11.42,31.5526667 15.776,31.5526667 C18.8253333,31.5526667 21.5326667,30.806 23.9286667,29.3433333 C27.2893333,27.3206667 28.69,24.956 28.2226667,22.2793333 C27.8186667,20.0393333 26.1073333,18.4833333 23.0886667,17.612 L22.3733333,17.3633333 C23.6486667,16.6473333 24.396,15.6826667 24.5826667,14.438 C24.7693333,13.038 24.2086667,11.7313333 22.8393333,10.5486667 C21.4706667,9.304 19.6966667,8.55733333 17.5186667,8.21466667 C15.0913333,7.84133333 12.322,7.81 9.21066667,8.05933333 L9.21066667,13.038 C11.6686667,12.6953333 14.1893333,12.6953333 16.8033333,13.0693333 C18.9813333,13.4113333 20.164,14.0646667 20.288,15.154 C20.3193333,15.372 20.226,15.6206667 20.0706667,15.9626667 C19.728,16.5226667 18.9813333,16.71 17.7986667,16.5226667 C14.718,16.1493333 11.8553333,16.1493333 9.21066667,16.5226667 L9.21066667,21.5953333 C12.9753333,21.1286667 16.2426667,21.1593333 18.9813333,21.7193333 C21.2526667,22.124 22.4666667,22.9333333 22.5593333,24.1153333 C22.622,24.6133333 22.4353333,25.08 21.9993333,25.6093333 C20.9106667,26.8226667 18.888,27.414 15.8073333,27.414 C12.5713333,27.414 9.80133333,26.294 7.53,24.0226667 C5.25866667,21.7506667 4.10733333,19.0126667 4.10733333,15.776 C4.10733333,12.5713333 5.25866667,9.802 7.53,7.53 C9.83266667,5.25866667 12.5713333,4.10733333 15.8073333,4.10733333 C19.012,4.10733333 21.782,5.25866667 24.022,7.53 C26.294,9.77066667 27.4453333,12.5713333 27.4453333,15.776 L27.3826667,17.052 C28.752,17.83 29.9346667,18.826 30.93,20.0706667" id="Imported-Layers" fill="#E60012" sketch:type="MSShapeGroup"></path>
    </g>
</svg>