<?xml version="1.0" encoding="UTF-8" standalone="no"?>
<svg width="22px" height="32px" viewBox="0 0 22 32" version="1.1" xmlns="http://www.w3.org/2000/svg" xmlns:xlink="http://www.w3.org/1999/xlink" xmlns:sketch="http://www.bohemiancoding.com/sketch/ns">
    <!-- Generator: Sketch 3.3.2 (12043) - http://www.bohemiancoding.com/sketch -->
    <title>Fill 4</title>
    <desc>Created with Sketch.</desc>
    <defs></defs>
    <g id="切图" stroke="none" stroke-width="1" fill="none" fill-rule="evenodd" sketch:type="MSPage">
        <path d="M10.8780936,10.4473946 C11.8053911,10.4473946 12.7056228,10.50741 13.5658442,10.6192035 C12.9374471,8.61515831 11.9666091,7.32894495 10.8780936,7.32894495 C9.78840143,7.32894495 8.81874012,8.61515831 8.1903431,10.6192035 C9.04938771,10.50741 9.94961939,10.4473946 10.8780936,10.4473946 L10.8780936,10.4473946 Z M9.68955246,4.56117383 C6.27808627,4.28580885 3.17258118,2.92898908 0.714301475,0.833155592 L3.20435406,0 C5.07895414,1.30033464 7.29364175,2.14525797 9.68955246,2.36884492 L9.68955246,0.0882580076 L12.263156,0.0882580076 L12.263156,2.36884492 C14.6402383,2.14643474 16.8408046,1.31327915 18.7059905,0.0282425624 L21.201927,0.864928474 C18.7495311,2.94193359 15.6581473,4.28816239 12.263156,4.56117383 L12.263156,4.99775678 C16.6219248,5.53907256 20.1969625,8.6069209 21.4796455,12.6891479 C20.687677,12.1725444 19.7156621,11.7159563 18.6059648,11.3393888 C17.5951164,9.78840143 16.0982606,8.56220351 14.3225095,7.86202331 C14.937962,8.72459824 15.452212,9.8119369 15.8299562,11.05814 C19.347332,11.9819071 21.7550105,13.8588607 21.7550105,16.0229471 C21.7550105,18.1870334 19.347332,20.0639871 15.8299562,20.9877542 C15.452212,22.2339573 14.937962,23.3224727 14.3225095,24.1838708 C16.0982606,23.4836907 17.5951164,22.2586695 18.6059648,20.7065054 C19.7156621,20.3299379 20.687677,19.8733498 21.4796455,19.3567462 C20.1910786,23.4578016 16.5889751,26.5338874 12.2031405,27.0563748 L12.2031405,27.4388262 C15.6146067,27.7130144 18.7212886,29.0710109 21.1783915,31.1656676 L18.6883389,32 C16.8137388,30.6984886 14.5990512,29.854742 12.2031405,29.6311551 L12.2031405,31.9105652 L9.63071379,31.9105652 L9.63071379,29.6311551 C7.25245468,29.8535653 5.05188835,30.6867208 3.18670246,31.9717574 L0.690766006,31.1350715 C3.14316184,29.0580664 6.23572243,27.7118376 9.63071379,27.4388262 L9.63071379,27.0646122 C5.20957599,26.5703674 1.57216931,23.4825139 0.275364984,19.3567462 C1.06851028,19.8733498 2.03934836,20.3299379 3.15022248,20.7065054 C4.15989409,22.2586695 5.6567499,23.4836907 7.43367778,24.1838708 C6.81822528,23.3224727 6.30279851,22.2339573 5.92505424,20.9877542 C2.40767845,20.0639871 0,18.1870334 0,16.0229471 C0,13.8588607 2.40767845,11.9819071 5.92505424,11.05814 C6.30279851,9.8119369 6.81822528,8.72459824 7.43367778,7.86202331 C5.6567499,8.56220351 4.15989409,9.78840143 3.15022248,11.3393888 C2.03934836,11.7159563 1.06851028,12.1725444 0.275364984,12.6891479 C1.57805318,8.54572868 5.24252565,5.44728423 9.68955246,4.97422131 L9.68955246,4.56117383 L9.68955246,4.56117383 Z M13.5658442,21.4266907 C12.7056228,21.5384842 11.8053911,21.5984996 10.8780936,21.5984996 C9.94961939,21.5984996 9.04938771,21.5384842 8.1903431,21.4266907 C8.81874012,23.4319126 9.78840143,24.718126 10.8780936,24.718126 C11.9666091,24.718126 12.9374471,23.4319126 13.5658442,21.4266907 L13.5658442,21.4266907 Z M16.3477365,13.4128636 C16.4665907,14.2460192 16.5313132,15.1215386 16.5313132,16.0229471 C16.5313132,16.9255323 16.4665907,17.799875 16.3477365,18.6342073 C18.303534,18.0164013 19.5532674,17.0761593 19.5532674,16.0229471 C19.5532674,14.9697349 18.303534,14.0294929 16.3477365,13.4128636 L16.3477365,13.4128636 Z M5.4084507,18.6342073 C5.28841981,17.799875 5.22369728,16.9255323 5.22369728,16.0229471 C5.22369728,15.1215386 5.28841981,14.2460192 5.4084507,13.4128636 C3.45265326,14.0294929 2.20291987,14.9697349 2.20291987,16.0229471 C2.20291987,17.0761593 3.45265326,18.0164013 5.4084507,18.6342073 L5.4084507,18.6342073 Z M14.0800941,12.8962601 C13.0892509,12.7432795 12.0089729,12.6597286 10.8780936,12.6597286 C9.74721436,12.6597286 8.66693634,12.7432795 7.67609311,12.8962601 C7.52781966,13.8659214 7.44662229,14.9203104 7.44662229,16.0229471 C7.44662229,17.1255838 7.52781966,18.1799728 7.67609311,19.1496341 C8.66693634,19.3026146 9.74721436,19.3873423 10.8780936,19.3873423 C12.0089729,19.3873423 13.0892509,19.3026146 14.0800941,19.1496341 C14.2271908,18.1799728 14.3083882,17.1255838 14.3083882,16.0229471 C14.3083882,14.9203104 14.2271908,13.8659214 14.0800941,12.8962601 L14.0800941,12.8962601 Z" id="Fill-4" fill="#E60012" sketch:type="MSShapeGroup"></path>
    </g>
</svg>