<?xml version="1.0" encoding="UTF-8" standalone="no"?>
<svg width="32px" height="32px" viewBox="0 0 32 32" version="1.1" xmlns="http://www.w3.org/2000/svg" xmlns:xlink="http://www.w3.org/1999/xlink" xmlns:sketch="http://www.bohemiancoding.com/sketch/ns">
    <!-- Generator: Sketch 3.3.2 (12043) - http://www.bohemiancoding.com/sketch -->
    <title>icon_gongshang</title>
    <desc>Created with Sketch.</desc>
    <defs></defs>
    <g id="切图" stroke="none" stroke-width="1" fill="none" fill-rule="evenodd" sketch:type="MSPage">
        <path d="M3.16682086,16.0541092 L3.27605679,17.3649821 L3.38631361,18.5666156 L3.71300048,19.8774885 L4.14994417,20.9698826 L4.69612378,22.1704952 L5.35153932,23.1536498 L5.67924709,23.6998469 L6.11619078,24.1368045 L6.88084224,25.1199592 L7.86396554,25.884635 L8.84708885,26.6493109 L9.93842718,27.3037264 L11.0307864,27.8499234 L12.2313607,28.2868811 L13.4329558,28.6145993 L14.0883714,28.7238387 L14.7437869,28.8330781 L15.3992024,28.8330781 L16.054618,28.8330781 L17.365449,28.8330781 L18.5670442,28.6145993 L19.8768544,28.2868811 L20.9692136,27.8499234 L22.1708087,27.3037264 L23.1529112,26.6493109 L23.6990908,26.3215926 L24.1360345,25.884635 L25.1191578,25.1199592 L25.8838092,24.1368045 L26.6484607,23.1536498 L27.3038762,22.1704952 L27.8500558,20.9698826 L28.2869995,19.8774885 L28.6147073,18.5666156 L28.7239432,18.0204186 L28.8321582,17.3649821 L28.8321582,16.7095457 L28.8321582,16.0541092 L28.8321582,14.7442573 L28.6147073,13.4333844 L28.2869995,12.2317509 L27.8500558,11.0301174 L27.3038762,9.93874426 L26.6484607,8.84635018 L26.3207529,8.30015314 L25.8838092,7.86319551 L25.1191578,6.98928025 L24.1360345,6.11638591 L23.1529112,5.35068913 L22.1708087,4.69627361 L20.9692136,4.15007657 L19.8768544,3.71311894 L18.5670442,3.38540071 L18.0208646,3.27616131 L17.365449,3.27616131 L16.7100335,3.1669219 L16.054618,3.1669219 L14.7437869,3.27616131 L13.4329558,3.38540071 L12.2313607,3.71311894 L11.0307864,4.15007657 L9.93842718,4.69627361 L8.84708885,5.35068913 L8.29988834,5.67942828 L7.86396554,6.11638591 L6.88084224,6.98928025 L6.11619078,7.86319551 L5.35153932,8.84635018 L4.69612378,9.93874426 L4.14994417,11.0301174 L3.71300048,12.2317509 L3.38631361,13.4333844 L3.27605679,14.0888208 L3.27605679,14.7442573 L3.16682086,15.3996937 L3.16682086,16.0541092 L3.16682086,16.0541092 Z M0,16.0541092 L0.109235923,14.4165391 L0.218471846,13.5426238 L0.327707768,12.7779479 L0.76465146,11.2485962 L0.983123305,10.4849413 L1.31083107,9.82950485 L1.63853884,9.06482899 L1.96624661,8.40939255 L2.72987717,7.09851965 L3.16682086,6.44308321 L3.71300048,5.78866769 L4.69612378,4.69627361 L5.2423034,4.15007657 L5.78848301,3.71311894 L6.44389855,3.1669219 L7.09931409,2.72996427 L7.75370873,2.29300664 L8.40912426,1.96528841 L9.82919126,1.30985197 L11.2492583,0.764675855 L12.0139097,0.546197039 L12.7775403,0.327718224 L13.5432126,0.218478816 L14.4160791,0.109239408 L16.054618,0 L17.6931568,0.109239408 L18.4567874,0.218478816 L19.2214388,0.327718224 L20.7507417,0.764675855 L21.5153932,0.983154671 L22.2800447,1.30985197 L22.9344393,1.63757019 L23.5898548,1.96528841 L25.0099218,2.72996427 L25.5561015,3.1669219 L26.211517,3.71311894 L27.3038762,4.69627361 L27.8500558,5.24247065 L28.3952145,5.78866769 L28.8321582,6.44308321 L29.2691019,7.09851965 L29.7060456,7.7539561 L30.0337534,8.40939255 L30.7984048,9.82950485 L31.3445845,11.2485962 L31.4538204,12.0132721 L31.6722922,12.7779479 L31.7815282,13.5426238 L31.8907641,14.4165391 L32,16.0541092 L31.8907641,17.6927004 L31.7815282,18.4573762 L31.6722922,19.2220521 L31.3445845,20.7514038 L31.0168767,21.5150587 L30.7984048,22.2797346 L30.4706971,22.935171 L30.0337534,23.5906075 L29.2691019,25.0107198 L28.8321582,25.5569168 L28.3952145,26.2123532 L27.3038762,27.3037264 L26.7576966,27.8499234 L26.211517,28.3961205 L25.5561015,28.8330781 L25.0099218,29.2700357 L24.3545063,29.7069934 L23.5898548,30.0347116 L22.2800447,30.7993874 L20.7507417,31.3455845 L19.9860903,31.5640633 L19.2214388,31.6722818 L18.4567874,31.7825421 L17.6931568,31.8907606 L16.054618,32 L14.4160791,31.8907606 L13.5432126,31.7825421 L12.7775403,31.6722818 L11.2492583,31.3455845 L10.4846068,31.0178663 L9.82919126,30.7993874 L9.0645398,30.4716692 L8.40912426,30.0347116 L7.09931409,29.2700357 L6.44389855,28.8330781 L5.78848301,28.3961205 L4.69612378,27.3037264 L4.14994417,26.7585503 L3.71300048,26.2123532 L3.16682086,25.5569168 L2.72987717,25.0107198 L2.29395438,24.3552833 L1.96624661,23.5906075 L1.31083107,22.2797346 L0.76465146,20.7514038 L0.546179614,19.9867279 L0.327707768,19.2220521 L0.218471846,18.4573762 L0.109235923,17.6927004 L0,16.0541092 L0,16.0541092 Z M25.0099218,17.1465033 L25.0099218,19.3312915 L25.0099218,21.9520163 L25.0099218,24.2460439 L22.4985165,24.2460439 L17.1469772,24.2460439 L17.1469772,21.9520163 L22.4985165,21.9520163 L22.4985165,19.3312915 L19.6583825,19.3312915 L17.1469772,19.3312915 L17.1469772,17.0372639 L17.1469772,14.6350179 L17.1469772,12.2317509 L19.6583825,12.2317509 L22.4985165,12.2317509 L22.4985165,9.82950485 L17.1469772,9.82950485 L17.1469772,7.53547728 L22.4985165,7.53547728 L25.0099218,7.53547728 L25.0099218,9.82950485 L25.0099218,12.2317509 L25.0099218,14.6350179 L22.4985165,14.6350179 L19.6583825,14.6350179 L19.6583825,17.0372639 L25.0099218,17.0372639 L25.0099218,17.1465033 L25.0099218,17.1465033 Z M6.99007816,17.1465033 L6.99007816,19.3312915 L6.99007816,21.9520163 L6.99007816,24.2460439 L9.50148349,24.2460439 L14.8530228,24.2460439 L14.8530228,21.9520163 L9.50148349,21.9520163 L9.50148349,19.3312915 L12.3405966,19.3312915 L14.8530228,19.3312915 L14.8530228,17.0372639 L14.8530228,14.6350179 L14.8530228,12.2317509 L12.3405966,12.2317509 L9.50148349,12.2317509 L9.50148349,9.82950485 L14.8530228,9.82950485 L14.8530228,7.53547728 L9.50148349,7.53547728 L6.99007816,7.53547728 L6.99007816,9.82950485 L6.99007816,12.2317509 L6.99007816,14.6350179 L9.50148349,14.6350179 L12.3405966,14.6350179 L12.3405966,17.0372639 L6.99007816,17.0372639 L6.99007816,17.1465033 L6.99007816,17.1465033 Z" id="icon_gongshang" fill="#ED1C24" sketch:type="MSShapeGroup"></path>
    </g>
</svg>