<?xml version="1.0" encoding="UTF-8" standalone="no"?>
<svg width="30px" height="30px" viewBox="0 0 30 30" version="1.1" xmlns="http://www.w3.org/2000/svg" xmlns:xlink="http://www.w3.org/1999/xlink" xmlns:sketch="http://www.bohemiancoding.com/sketch/ns">
    <!-- Generator: Sketch 3.3.2 (12043) - http://www.bohemiancoding.com/sketch -->
    <title>icon_guanzhoushangye copy</title>
    <desc>Created with Sketch.</desc>
    <defs></defs>
    <g id="切图" stroke="none" stroke-width="1" fill="none" fill-rule="evenodd" sketch:type="MSPage">
        <path d="M0.16716523,14.2475357 C0.16716523,14.2475357 1.17279606,-0.410648943 16.4244237,0.00883474454 C16.4244237,0.00883474454 28.9107866,0.76425715 30,14.3328396 L22.793419,14.3310807 C22.793419,14.3310807 18.519268,14.4981707 15,7.71431916 C15,7.71431916 11.0610593,13.7524219 6.78690832,14.2545711 L0.16716523,14.2475357 L0.16716523,14.2475357 Z M0,15.1682893 L7.37374626,15.3362586 C7.37374626,15.3362586 8.54742214,15.3362586 9.55305296,16.2570121 L0.16716523,16.2631681 L0,15.1682893 L0,15.1682893 Z M0.335210276,17.0951001 L11.0610593,17.0951001 C11.0610593,17.0951001 11.9831075,17.4301594 12.3183178,18.2673679 L0.585958121,18.3509129 L0.335210276,17.0951001 L0.335210276,17.0951001 Z M0.921168397,19.2690281 L13.3239486,19.2725458 C13.3239486,19.2725458 15.0835826,20.9478423 14.6647897,25.0520988 C14.6647897,25.0520988 15.5023755,25.7222174 15.6704206,24.9685538 C15.6704206,24.9685538 15.0835826,19.2725458 16.927679,19.2725458 L29.3330987,19.1890008 L28.5755763,20.867815 L24.3023051,20.8642973 C24.3023051,20.8642973 22.793419,20.529238 22.8770016,23.041743 C22.8770016,23.041743 22.9412282,30.7762483 15.249868,29.9900462 C15.249868,29.9900462 7.20658103,30.4121681 7.29016365,23.4603473 C7.29016365,23.4603473 7.62537392,20.445693 5.53052965,21.1149322 L1.50976597,21.1149322 L0.921168397,19.2690281 L0.921168397,19.2690281 Z M17.6816822,18.2673679 C17.6816822,18.2673679 18.0168925,16.9271307 19.8601091,17.26219 L29.6647897,17.178645 L29.4976245,18.1838229 L17.6816822,18.2673679 L17.6816822,18.2673679 Z M20.2797818,16.3414365 C20.2797818,16.3414365 20.7821573,15.2518342 21.6197431,15.2518342 L29.8328348,15.4198036 L29.6647897,16.4249815 L20.2797818,16.3414365 L20.2797818,16.3414365 Z" id="icon_guanzhoushangye-copy" fill="#005AAA" sketch:type="MSShapeGroup"></path>
    </g>
</svg>