<?xml version="1.0" encoding="UTF-8" standalone="no"?>
<svg width="48px" height="22px" viewBox="0 0 48 22" version="1.1" xmlns="http://www.w3.org/2000/svg" xmlns:xlink="http://www.w3.org/1999/xlink" xmlns:sketch="http://www.bohemiancoding.com/sketch/ns">
    <!-- Generator: Sketch 3.3.2 (12043) - http://www.bohemiancoding.com/sketch -->
    <title>Fill 20 + Fill 21</title>
    <desc>Created with Sketch.</desc>
    <defs></defs>
    <g id="切图" stroke="none" stroke-width="1" fill="none" fill-rule="evenodd" sketch:type="MSPage">
        <g id="Fill-20-+-Fill-21" sketch:type="MSLayerGroup" fill="#9012FE">
            <path d="M0.504857152,0.713151441 L11.0322859,0.713151441 C11.0322859,0.713151441 13.0182859,0.713151441 13.3928574,1.27543717 L11.4445716,1.27543717 L11.4445716,1.8745886 L14.4411431,1.91230289 C14.4411431,1.91230289 14.9288574,2.24915147 14.9288574,2.51143719 L11.4445716,2.54915147 L11.4445716,3.11058005 L15.3034288,3.11058005 C15.3034288,3.11058005 15.7525717,3.33515149 15.640286,3.82286578 L3.61542864,3.82286578 L3.61542864,4.45973151 L15.8271431,4.42201722 C15.8271431,4.42201722 15.9025717,4.9088658 15.9025717,5.0588658 L3.61542864,5.0588658 L3.61542864,5.69573153 L15.940286,5.65800867 C15.940286,5.65800867 16.0148574,6.03258868 15.8271431,6.2948744 L3.61542864,6.40715154 L3.61542864,7.00630298 L15.640286,6.93172298 C15.640286,6.93172298 15.640286,7.41858013 15.340286,7.56858871 L3.61542864,7.64315156 L3.61542864,8.20543729 L14.9657146,8.13000872 C14.9657146,8.13000872 14.9288574,8.7300173 14.5165717,8.84230301 L3.61542864,8.88000873 L3.61542864,9.47916017 L13.6174288,9.40372302 C13.6174288,9.40372302 13.3928574,10.153723 11.8568574,10.0782945 L9.98400018,10.0405802 L9.98400018,10.6028745 L13.0182859,10.6405888 C13.0182859,10.6405888 14.2920003,10.6405888 14.4788574,11.1643031 L9.98400018,11.2774459 L9.98400018,11.8388659 L15.2657146,11.8388659 C15.2657146,11.8388659 15.7525717,12.2134374 15.7525717,12.4380174 L3.61542864,12.5134459 L3.61542864,13.1871602 L16.0148574,13.0748745 C16.0148574,13.0748745 16.5017146,13.4125888 16.5017146,13.7494374 L3.61542864,13.8240174 L3.61542864,14.3862945 L16.6894289,14.3862945 C16.6894289,14.3862945 16.8385717,14.5731603 16.7640003,14.910866 L3.61542864,15.0231517 L3.61542864,15.5845888 L16.7640003,15.5845888 C16.7640003,15.5845888 16.876286,15.9222946 16.7640003,16.1845803 L3.61542864,16.2591603 L3.61542864,16.8583032 L16.6517146,16.8583032 C16.6517146,16.8583032 16.7640003,17.232866 16.4640003,17.5328746 L3.61542864,17.5328746 L3.61542864,18.1320175 L16.2017146,18.0942946 C16.2017146,18.0942946 16.1648574,18.6942946 15.9025717,18.7320089 L11.4445716,18.7320089 L11.4445716,19.3680089 L15.3034288,19.3311518 C15.3034288,19.3311518 15.040286,19.9303032 14.7788574,20.0048661 L11.4445716,20.0425889 L11.4445716,20.6794461 L13.6920002,20.6417232 C13.6920002,20.6417232 13.3551431,21.3540175 10.3954288,21.2417232 L0.504857152,21.2040175 L0.504857152,0.713151441 L0.504857152,0.713151441 Z" id="Fill-20" sketch:type="MSShapeGroup"></path>
            <path d="M17.6254289,14.0485802 C17.6254289,14.0485802 17.2885717,11.2774459 20.4351432,10.7528745 C20.4351432,10.7528745 26.2791433,9.55372303 26.4282862,13.1871602 L26.541429,19.9303032 L26.9160005,21.0917318 L23.9185719,21.1662947 L23.7317147,20.1171518 C23.7317147,20.1171518 22.233429,21.6908661 19.7982861,21.1285804 C19.7982861,21.1285804 17.176286,20.9417318 17.176286,18.0574375 C17.176286,18.0574375 17.0640003,16.146866 18.862286,15.4723031 C18.862286,15.4723031 21.783429,14.6485803 22.6825718,14.6485803 C22.6825718,14.6485803 24.6677147,14.3108745 22.9825718,12.9248745 C22.9825718,12.9248745 20.5105718,12.3634374 20.4351432,14.0117231 L17.6254289,14.0485802 L17.6254289,14.0485802 Z M27.4405719,10.9020173 L30.2871434,10.9020173 L30.2502862,11.9888659 C30.2502862,11.9888659 31.8231434,10.378303 33.0222863,10.5274459 C33.0222863,10.5274459 36.0557149,9.92829446 36.6557149,13.4871517 L36.7302864,21.1285804 L33.920572,21.1285804 L33.8837149,14.2362945 C33.8837149,14.2362945 33.0968577,12.2511516 31.0740005,13.524866 C31.0740005,13.524866 30.1748577,13.8617231 30.3248577,16.1845803 L30.3617148,21.1285804 L27.5151433,21.0917318 L27.4405719,10.9020173 L27.4405719,10.9020173 Z M37.741715,6.74401726 L40.3645721,6.78173155 L40.513715,14.5731603 L43.6980008,10.4151516 L46.956858,10.4151516 L43.9980008,14.4985803 L47.556858,21.0162947 L44.2602865,21.1285804 L41.9751436,16.9337232 L40.5891436,18.8065889 L40.6260007,21.0917318 L37.8171435,21.0917318 L37.741715,6.74401726 L37.741715,6.74401726 Z M23.6940004,16.221446 C23.6940004,16.221446 23.6571433,17.3082946 23.6940004,17.5328746 C23.6940004,17.5328746 23.3571433,18.618866 22.4202861,18.8065889 C22.4202861,18.8065889 20.6228575,19.8925804 20.0228575,18.5065803 C20.0228575,18.5065803 19.7605718,17.682866 20.6228575,17.3451517 C20.6228575,17.3451517 23.5440004,16.5960089 23.6940004,16.221446 L23.6940004,16.221446 Z" id="Fill-21" sketch:type="MSShapeGroup"></path>
        </g>
    </g>
</svg>