<?xml version="1.0" encoding="UTF-8" standalone="no"?>
<svg width="32px" height="32px" viewBox="0 0 32 32" version="1.1" xmlns="http://www.w3.org/2000/svg" xmlns:xlink="http://www.w3.org/1999/xlink" xmlns:sketch="http://www.bohemiancoding.com/sketch/ns">
    <!-- Generator: Sketch 3.3.2 (12043) - http://www.bohemiancoding.com/sketch -->
    <title>Fill 83 + Fill 85</title>
    <desc>Created with Sketch.</desc>
    <defs></defs>
    <g id="切图" stroke="none" stroke-width="1" fill="none" fill-rule="evenodd" sketch:type="MSPage">
        <g id="Fill-83-+-Fill-85" sketch:type="MSLayerGroup" fill="#0B65AB">
            <path d="M31.5728,15.7371238 C31.5728,24.3592952 24.5894857,31.3434095 15.9665143,31.3434095 C7.34982857,31.3434095 0.363428571,24.3592952 0.363428571,15.7371238 C0.363428571,7.11769524 7.34982857,0.130838095 15.9665143,0.130838095 C24.5894857,0.130838095 31.5728,7.11769524 31.5728,15.7371238 Z M28.6456,15.7371238 C28.6456,22.7411238 22.9724571,28.4150667 15.9665143,28.4150667 C8.96765714,28.4150667 3.29222857,22.7411238 3.29222857,15.7371238 C3.29222857,8.73278095 8.96765714,3.0604381 15.9665143,3.0604381 C22.9724571,3.0604381 28.6456,8.73278095 28.6456,15.7371238 Z" id="Fill-83" sketch:type="MSShapeGroup"></path>
            <path d="M24.6533714,5.69460952 C22.6961143,6.0780381 19.1164571,5.75689524 15.2861714,9.20032381 C13.3352,10.9547238 12.2654857,14.763981 12.2654857,17.1058095 L12.2654857,29.7840952 L15.3811429,29.7840952 L15.3811429,19.2499238 L22.6050286,19.2499238 L22.6050286,16.1302667 L15.5804571,16.2268381 C15.5804571,16.2268381 15.6785143,12.2260381 18.7008,10.5685524 C22.264,8.61449524 25.5276571,9.29998095 27.284,9.29998095 C29.0395429,9.29998095 29.2341714,10.4739238 29.2341714,10.4739238 L26.992,6.47232381 L24.6533714,5.69460952 L24.6533714,5.69460952 Z" id="Fill-85" sketch:type="MSShapeGroup"></path>
        </g>
    </g>
</svg>