<?xml version="1.0" encoding="UTF-8" standalone="no"?>
<svg width="32px" height="28px" viewBox="0 0 32 28" version="1.1" xmlns="http://www.w3.org/2000/svg" xmlns:xlink="http://www.w3.org/1999/xlink" xmlns:sketch="http://www.bohemiancoding.com/sketch/ns">
    <!-- Generator: Sketch 3.3.2 (12043) - http://www.bohemiancoding.com/sketch -->
    <title>Imported Layers</title>
    <desc>Created with Sketch.</desc>
    <defs></defs>
    <g id="切图" stroke="none" stroke-width="1" fill="none" fill-rule="evenodd" sketch:type="MSPage">
        <g id="Imported-Layers" sketch:type="MSLayerGroup">
            <g sketch:type="MSShapeGroup">
                <path d="M16.0154483,10.9131034 C15.4405517,9.74234483 14.8987586,8.55393103 14.3878621,7.34786207 C13.4388966,5.10786207 12.6168276,2.82924138 11.9161379,0.520827586 C9.3462069,7.92275862 5.37158621,14.7244138 0.336551724,20.5263448 C3.96358621,19.6788966 7.66124138,19.1293793 11.4096552,18.8844138 C13.12,16.3376552 14.6582069,13.6750345 16.0154483,10.9131034" id="Fill-1" fill="#BF0017"></path>
                <path d="M16.0154483,18.7310345 C14.473931,18.7310345 12.937931,18.7828966 11.4096552,18.8833103 C9.33627586,21.9674483 7.0102069,24.8871724 4.43917241,27.6193103 C8.18317241,26.8987586 12.0651034,26.5522759 16.0154483,26.5522759 C19.9668966,26.5522759 23.8488276,26.8987586 27.593931,27.6193103 C25.0217931,24.8871724 22.6935172,21.9674483 20.6212414,18.8833103 C19.0951724,18.7828966 17.5602759,18.7310345 16.0154483,18.7310345" id="Fill-2" fill="#730000"></path>
                <path d="M0.336551724,20.5252414 L4.44027586,27.6193103 C7.00910345,24.8871724 9.33737931,21.9674483 11.4107586,18.8833103 C7.66013793,19.1282759 3.96248276,19.6788966 0.336551724,20.5252414" id="Fill-3" fill="#E6001F"></path>
                <path d="M20.1169655,0.520827586 L20.1169655,0.520827586 C19.4173793,2.82924138 18.5931034,5.10786207 17.6452414,7.34786207 C17.1354483,8.55393103 16.5925517,9.74234483 16.0176552,10.9131034 C17.3748966,13.6750345 18.9131034,16.3376552 20.6223448,18.8844138 C24.3729655,19.1293793 28.0706207,19.6788966 31.6965517,20.5263448 C26.6593103,14.7244138 22.6868966,7.92275862 20.1169655,0.520827586" id="Fill-4" fill="#E6001F"></path>
                <path d="M16.0154483,10.9131034 C16.5914483,9.74234483 17.1343448,8.55393103 17.6463448,7.34786207 C18.5942069,5.10786207 19.4173793,2.82924138 20.1169655,0.520827586 L11.9161379,0.520827586 C12.6168276,2.82924138 13.4388966,5.10786207 14.3878621,7.34786207 C14.8987586,8.55393103 15.4405517,9.74234483 16.0154483,10.9131034" id="Fill-5" fill="#730000"></path>
                <path d="M27.593931,27.6204138 L31.6965517,20.5263448 C28.0695172,19.6788966 24.3718621,19.1293793 20.6212414,18.8833103 C22.6935172,21.9685517 25.0217931,24.886069 27.593931,27.6204138" id="Fill-6" fill="#BF0017"></path>
            </g>
        </g>
    </g>
</svg>