<?xml version="1.0" encoding="UTF-8" standalone="no"?>
<svg width="32px" height="32px" viewBox="0 0 32 32" version="1.1" xmlns="http://www.w3.org/2000/svg" xmlns:xlink="http://www.w3.org/1999/xlink" xmlns:sketch="http://www.bohemiancoding.com/sketch/ns">
    <!-- Generator: Sketch 3.3.2 (12043) - http://www.bohemiancoding.com/sketch -->
    <title>Fill 14</title>
    <desc>Created with Sketch.</desc>
    <defs></defs>
    <g id="切图" stroke="none" stroke-width="1" fill="none" fill-rule="evenodd" sketch:type="MSPage">
        <path d="M30.8667209,6.22601804 L29.7334418,4.75926259 C29.7334418,4.75926259 25.2907519,5.49363405 25.3811784,2.9725239 C25.3811784,2.9725239 25.6986538,1.09336769 22.4796694,1.82674541 C22.4796694,1.82674541 21.7090789,1.09336769 21.7542922,0.680966931 C21.7542922,0.680966931 21.9813411,-0.41909966 18.4910775,0.177142395 C18.4910775,0.177142395 13.3230103,0.818102604 7.65661492,7.37179653 C7.65661492,7.37179653 1.9450063,12.0930399 1.9450063,7.23466085 C1.9450063,7.23466085 -1.18256875,10.4424431 0.494251815,13.0092652 C0.494251815,13.0092652 2.39812135,15.7132229 6.02500757,13.5130897 C6.02500757,13.5130897 4.89172849,22.4040525 10.6937635,27.033872 C10.6937635,27.033872 16.7680608,32.7160588 23.749571,30.6997669 C23.749571,30.6997669 29.5968193,29.4625647 31.8181642,23.5041191 C31.8181642,23.5041191 30.7753116,24.5584738 30.3221965,24.46705 C30.3221965,24.46705 31.9085907,22.5421819 32,21.7163866 C32,21.7163866 31.9538039,20.5716019 31.0475738,22.3583406 C31.0475738,22.3583406 31.2746228,21.258274 30.6396719,21.8088042 C30.6396719,21.8088042 27.5573101,25.4289872 26.2421953,25.6128285 C26.2421953,25.6128285 16.4967815,31.4331447 12.0540916,19.7000948 C12.0540916,19.7000948 10.1502221,14.1550436 14.6381252,9.98433046 C19.1260283,5.81361729 23.5225221,6.22601804 27.5573101,9.25095274 C27.5573101,9.25095274 29.5968193,6.91368388 30.4588191,7.37179653 C30.4588191,7.37179653 31.2294095,6.91368388 30.8667209,6.22601804 Z M17.3263457,13.3521043 C17.3263457,13.3949344 27.1553056,13.3521043 27.1553056,13.3521043 L27.1553056,20.3082616 L17.3263457,20.3082616 L17.3263457,13.3521043 Z" id="Fill-14" fill="#ED1C24" sketch:type="MSShapeGroup"></path>
    </g>
</svg>