<?xml version="1.0" encoding="UTF-8" standalone="no"?>
<svg width="32px" height="34px" viewBox="0 0 32 34" version="1.1" xmlns="http://www.w3.org/2000/svg" xmlns:xlink="http://www.w3.org/1999/xlink" xmlns:sketch="http://www.bohemiancoding.com/sketch/ns">
    <!-- Generator: Sketch 3.3.2 (12043) - http://www.bohemiancoding.com/sketch -->
    <title>icon_jianshe</title>
    <desc>Created with Sketch.</desc>
    <defs></defs>
    <g id="切图" stroke="none" stroke-width="1" fill="none" fill-rule="evenodd" sketch:type="MSPage">
        <path d="M14.8006849,1.170163 C14.8006849,1.170163 17.6503102,-1.00608187 22.5507283,0.577080729 C22.5507283,0.577080729 24.2001516,1.170163 26.1005529,2.85185067 L32,8.98358722 L28.8505683,12.099684 L19.8505179,3.04986674 C19.8505179,3.04986674 18.3505095,1.21942553 14.8006849,1.170163 L14.8006849,1.170163 Z M27.8007577,13.1873234 L24.1005417,16.7477489 C24.1005417,16.7477489 23.4999524,17.5890757 22.9999496,16.7979774 L16.2001068,10.2199802 C16.2001068,10.2199802 15.6004941,9.42888189 15.1502962,10.1214552 L8.30064849,17.045256 C8.30064849,17.045256 7.85045065,17.7378292 8.40025842,18.0343704 L15.1004913,24.6606641 C15.1004913,24.6606641 15.650299,25.5502875 16.1503018,24.8586802 L23.1005361,17.9348794 C23.1005361,17.9348794 23.3007325,17.3417971 24.4003481,17.4895847 L31.4999972,17.4895847 C31.4999972,17.4895847 31.8007801,24.6114016 26.2997728,29.0624164 C26.2997728,29.0624164 19.1503186,36.1340048 9.35045906,31.782481 C9.35045906,31.782481 -0.0997891945,28.5176307 0.000797306462,16.4019452 C0.000797306462,16.4019452 0.250798707,8.29197988 7.70103575,3.98875267 C7.70103575,3.98875267 13.150285,-0.0169674713 17.4999188,2.95037574 L27.8007577,13.1873234 L27.8007577,13.1873234 Z" id="icon_jianshe" fill="#034593" sketch:type="MSShapeGroup"></path>
    </g>
</svg>