<?xml version="1.0" encoding="UTF-8" standalone="no"?>
<svg width="32px" height="32px" viewBox="0 0 32 32" version="1.1" xmlns="http://www.w3.org/2000/svg" xmlns:xlink="http://www.w3.org/1999/xlink" xmlns:sketch="http://www.bohemiancoding.com/sketch/ns">
    <!-- Generator: Sketch 3.3.2 (12043) - http://www.bohemiancoding.com/sketch -->
    <title>icon_jiaotong</title>
    <desc>Created with Sketch.</desc>
    <defs></defs>
    <g id="切图" stroke="none" stroke-width="1" fill="none" fill-rule="evenodd" sketch:type="MSPage">
        <path d="M9.07534971,31.7857943 L8.99911321,31.7177235 L8.9407379,31.6781037 L8.82359088,31.601568 L8.41179252,31.4077013 L8.23389181,31.2960134 L6.78923403,30.3117489 L6.12846328,29.7459026 L5.43511802,29.0283959 L4.82716137,28.1826244 L4.27916561,27.2228137 L3.41189527,25.1244916 L2.88454714,22.9329395 L2.7546921,21.8814271 L2.72412288,20.8971626 L2.80909178,19.677413 L3.0370318,18.4924629 L3.37060001,17.3460746 L3.83044403,16.2264913 L4.81445334,14.4621749 L5.98391823,12.9724932 L7.32135058,11.7583867 L8.41179252,11.0207762 L9.5665674,10.4269491 L11.3729726,9.80866831 L13.2599979,9.49758806 L15.1712501,9.48947599 L17.047153,9.76904849 L18.8698455,10.3348948 L20.5976474,11.1685569 L22.1721486,12.2701525 L23.5512726,13.6100549 L24.3430876,14.6351148 L25.0284932,15.7739789 L25.5776782,17.0080717 L25.9862937,18.3351593 L26.2412354,19.7614728 L26.3274168,21.2816042 L19.031867,21.2816042 L18.8797787,20.1379199 L18.7380084,19.6056976 L18.6558143,19.4134768 L18.572023,19.2377152 L18.4370148,19.0158678 L18.1411742,18.5806376 L17.8000512,18.1725652 L17.445847,17.8233935 L17.0487503,17.5386481 L16.657996,17.3059845 L16.2358796,17.1286946 L15.6366554,16.9636316 L15.210167,16.8920338 L14.3103338,16.8399519 L13.8739238,16.8591152 L13.4589427,16.9300077 L13.0562964,17.0337011 L12.6857933,17.1771319 L12.3307847,17.3657081 L11.9900697,17.5739179 L11.6835148,17.8233935 L11.4043462,18.0956769 L11.0644357,18.4924629 L10.7805104,18.9298093 L10.5462163,19.4019553 L10.3699012,19.9016118 L10.2416318,20.4093803 L10.1812745,20.9356068 L10.1812745,21.4648899 L10.2495714,22.0015798 L10.3841948,22.5185185 L10.6041953,23.03146 L10.8750161,23.5191247 L11.2331959,23.9824532 L11.5743073,24.3332709 L11.9471888,24.6672765 L12.3550115,24.9527274 L12.6830185,25.1284889 L13.0288867,25.2722724 L13.8739238,25.5245695 L14.3103338,25.5969903 L14.5069002,25.607101 L14.9329921,25.5906417 L15.3908425,25.5125777 L16.355405,25.2310066 L17.2699282,24.8105898 L17.671397,24.5546481 L18.0029832,24.2888308 L18.1411742,24.1475162 L18.7820901,23.0530922 L18.9393432,22.7210851 L18.9861997,22.5729517 L26.2853171,22.5729517 L26.0188566,24.4306157 L25.7694878,25.3207097 L24.9284263,27.2940589 L25.3747695,27.1823709 L25.8195154,27.0149566 L26.2718162,26.7927565 L27.145837,26.2485424 L28.6230576,24.9871743 L29.3092444,24.2187614 L29.9219695,23.3826303 L30.4731481,22.4908905 L30.9441029,21.5414256 L31.6306978,19.5412713 L31.8443442,18.5052776 L31.9694308,17.4537652 L32,16.3894381 L31.9416247,15.346273 L31.7653096,14.3123955 L31.4936959,13.3000327 L30.9937458,12.126369 L30.5684466,11.3864071 L29.5927733,9.98689871 L28.7604442,9.00463284 L27.8431462,8.13287923 L26.8281596,7.38080805 L25.7551825,6.74900712 L24.6250309,6.2292468 L23.4512056,5.83152024 L22.2392563,5.55888415 L21.0050621,5.40393186 L19.7537995,5.37183627 L18.4969756,5.46553656 L17.2469022,5.69020563 L16.0206476,6.02903151 L14.7932155,6.53315551 L12.4689757,7.85812695 L11.4087183,8.64135319 L11.4087183,0 L0,7.69200586 L0,22.0111027 L0.0337520521,22.5553167 L0.118732608,23.1067024 L0.29663332,23.8727639 L0.876014401,25.4212288 L1.47245222,26.5780805 L2.16380384,27.6801464 L3.77921553,29.6643117 L4.92842918,30.720174 L5.52009857,31.1358882 L6.39492378,31.5815818 L7.03901087,31.8458707 L7.37734751,31.9459195 L7.54650416,31.984011 L7.72520933,32 L7.89794522,32 L9.07534971,31.7857943 L9.07534971,31.7857943 Z" id="icon_jiaotong" fill="#0071B4" sketch:type="MSShapeGroup"></path>
    </g>
</svg>