<?xml version="1.0" encoding="UTF-8" standalone="no"?>
<svg width="32px" height="27px" viewBox="0 0 32 27" version="1.1" xmlns="http://www.w3.org/2000/svg" xmlns:xlink="http://www.w3.org/1999/xlink" xmlns:sketch="http://www.bohemiancoding.com/sketch/ns">
    <!-- Generator: Sketch 3.3.2 (12043) - http://www.bohemiancoding.com/sketch -->
    <title>Group</title>
    <desc>Created with Sketch.</desc>
    <defs></defs>
    <g id="切图" stroke="none" stroke-width="1" fill="none" fill-rule="evenodd" sketch:type="MSPage">
        <g id="Group" sketch:type="MSLayerGroup">
            <path d="M16.1646102,22.1139482 C14.4631864,22.3621554 11.4626441,20.370074 9.28650847,19.0781939 C9.08474576,18.9566872 8.42562712,18.6532621 9.0020339,18.0373912 C10.1149831,16.8306614 12.2505763,15.6101272 9.69613559,15.462515 C5.64216949,15.2292057 1.63484746,12.9336993 0.606779661,8.983296 C-0.179254237,5.98007105 2.60515254,3.20414156 5.37938983,1.98265058 C12.7830508,-1.26167431 24.1327458,-0.220734915 29.6299661,3.96010739 C30.9221695,4.94104515 31.3492881,6.48933315 31.4915254,7.73747634 L26.4192542,7.73747634 C26.8945085,6.29661722 25.9587797,5.2198682 25.0332203,4.42986956 C20.4176271,0.50871539 9.36962712,0.387208678 5.81532203,5.55964963 C4.67091525,7.22028692 4.76,9.12612447 5.85830508,10.6381928 C8.9780339,14.9317944 16.563661,14.3428491 21.1132203,16.8306614 C23.0321356,17.8837652 23.3133559,18.0656835 21.5806102,19.1667612 C20.6429831,19.764864 17.5247458,21.9123482 16.1646102,22.1139482 L16.1646102,22.1139482 Z" id="Fil" fill="#009BB6" sketch:type="MSShapeGroup"></path>
            <path d="M15.4511186,20.2038736 L12.8172203,18.595994 L15.4954576,17.0280244 L18.3518644,18.6369974 L15.4511186,20.2038736 L15.4511186,20.2038736 Z" id="Fill" fill="#FEFEFE" sketch:type="MSShapeGroup"></path>
            <path d="M15.4025763,4.92806075 C17.1035932,4.68040027 20.1137627,6.67972556 22.2839322,7.96463512 C22.484339,8.08901207 23.1475254,8.38642332 22.5689492,9.00653125 C21.4581695,10.2154479 19.3185085,11.4380323 21.875661,11.584141 C25.9227119,11.81417 29.9342373,14.1040727 30.9701695,18.0596697 C31.7510508,21.0642614 28.9675932,23.844838 26.1906441,25.0533445 C18.7873898,28.3060068 7.43728814,27.2571401 1.94101695,23.0840884 C0.646508475,22.0990503 0.223050847,20.5540426 0.0783728814,19.3045326 L5.15077966,19.3045326 C4.66725424,20.7438883 5.61071186,21.8206373 6.53816949,22.61911 C11.1499661,26.5319268 22.2004068,26.6575338 25.7514576,21.4906967 C26.8945085,19.8193985 26.8067797,17.914381 25.7117288,16.4005359 C22.5877966,12.1129481 15.0077288,12.6966997 10.4577627,10.2057437 C8.53464407,9.15592027 8.25667797,8.97017492 9.98616949,7.87524773 C10.9232542,7.27851173 14.0462373,5.13184759 15.4025763,4.92806075 L15.4025763,4.92806075 Z" id="Fil" fill="#007BB5" sketch:type="MSShapeGroup"></path>
            <path d="M15.8912542,6.83799864 L18.5259661,8.44970522 L15.8515254,10.0143946 L12.9909153,8.39763092 L15.8912542,6.83799864 L15.8912542,6.83799864 Z" id="Fil" fill="#FEFEFE" sketch:type="MSShapeGroup"></path>
        </g>
    </g>
</svg>