<?xml version="1.0" encoding="UTF-8" standalone="no"?>
<svg width="32px" height="32px" viewBox="0 0 32 32" version="1.1" xmlns="http://www.w3.org/2000/svg" xmlns:xlink="http://www.w3.org/1999/xlink" xmlns:sketch="http://www.bohemiancoding.com/sketch/ns">
    <!-- Generator: Sketch 3.3.2 (12043) - http://www.bohemiancoding.com/sketch -->
    <title>icon_nonghan</title>
    <desc>Created with Sketch.</desc>
    <defs></defs>
    <g id="切图" stroke="none" stroke-width="1" fill="none" fill-rule="evenodd" sketch:type="MSPage">
        <path d="M14.5511572,0.0666372184 L15.2927786,0 L16.0333881,0 L16.7739977,0 L17.447831,0.0666372184 L17.447831,9.61292358 L17.447831,9.88250142 L17.3810548,9.94913864 L17.3132667,10.0834227 L17.2454787,10.0834227 L17.1787024,10.1510696 L16.9763501,10.2187165 L15.0904262,10.2187165 L14.8880739,10.1510696 L14.8202858,10.0834227 L14.6857215,10.0834227 L14.6857215,9.94913864 L14.6189452,9.88250142 L14.5511572,9.61292358 L14.5511572,0.0666372184 L14.5511572,0.0666372184 Z M21.3552548,15.9323531 L21.3552548,20.5040702 L21.3552548,20.7060011 L21.2884786,20.8402852 L21.2206905,20.9079321 L21.1529025,21.0422162 L21.0183382,21.0422162 L20.8837739,21.1098631 L20.6146453,21.1765003 L17.7847477,21.1765003 L17.7847477,28.706506 L18.390793,28.5712122 L18.99785,28.504575 L19.5361072,28.302644 L20.0753762,28.1683599 L20.3445049,28.1007131 L20.6146453,27.966429 L21.1529025,27.764498 L21.6921715,27.4959298 L22.1636525,27.2273616 L22.7029215,26.9577838 L23.1744024,26.6892156 L23.5780954,26.3530006 L24.0505881,26.0167855 L24.925762,25.2777182 L25.3304667,24.8738563 L25.6673833,24.471004 L26.0710763,24.0005048 L26.4079929,23.5966429 L26.7449096,23.1261437 L27.0140382,22.6556446 L27.2841786,22.1174986 L27.5533072,21.6469994 L27.8224358,21.1098631 L28.0247882,20.571717 L28.3617048,19.4964347 L28.5640572,18.9582886 L28.6308334,18.3535054 L28.7653977,17.8153594 L28.8331858,17.2095665 L28.9009738,16 L28.8331858,15.0590017 L28.7653977,14.5885026 L28.7653977,14.1180034 L28.5640572,13.1770051 L28.2939168,12.2349972 L28.1593525,11.8321449 L28.0247882,11.428283 L27.6878715,10.5549315 L27.2163905,9.74821733 L26.8116858,8.94150312 L26.2734286,8.26907301 L25.6673833,7.52899602 L25.0603263,6.85656591 L24.386493,6.25178267 L23.7136714,5.71464631 L22.9720501,5.17650028 L22.1636525,4.70600114 L21.3552548,4.30213921 L21.3552548,15.1266486 L21.3552548,15.3275699 L21.2884786,15.461854 L21.2206905,15.5295009 L21.1529025,15.6637849 L21.0183382,15.7314318 L20.8837739,15.7314318 L20.6146453,15.798069 L16.8417858,15.798069 L16.6394334,15.798069 L16.5726571,15.8657159 L16.5048691,15.9323531 L16.5048691,11.2939989 L16.5726571,11.1597148 L16.6394334,11.0254307 L16.7739977,10.9577838 L16.908562,10.9577838 L18.5931453,10.9577838 L18.8622739,10.8911466 L19.0646263,10.8234997 L19.1991906,10.7558528 L19.3347667,10.5549315 L19.3347667,3.62970909 L19.3347667,1.00864517 L19.3347667,0.336215056 L20.6814215,0.739067331 L21.3552548,0.940998296 L21.9623119,1.14292926 L22.6351334,1.41149744 L23.2421905,1.7477125 L23.8482357,2.01628068 L24.386493,2.35249574 L24.99355,2.75635767 L25.5318073,3.09257273 L26.0710763,3.495425 L26.5425572,3.96592415 L27.0818262,4.4364233 L27.5533072,4.90692245 L28.4294929,5.8489304 L28.8331858,6.38606676 L29.2378905,6.92421278 L29.5748071,7.52899602 L29.910712,8.06714205 L30.5845453,9.27670853 L30.8546857,9.88250142 L31.0560263,10.5549315 L31.460731,11.8321449 L31.6630833,12.504575 L31.7976477,13.1770051 L31.8654357,13.8484256 L32,14.5885026 L32,15.2609327 L32,16 L32,16.8067142 L31.932212,17.6134284 L31.8654357,18.4201426 L31.7298596,19.2268568 L31.5275073,19.9669338 L31.3261667,20.773648 L31.0560263,21.5127153 L30.7868977,22.1851455 L30.449981,22.9242128 L30.1130644,23.5966429 L29.7093714,24.269073 L29.3046668,24.9415031 L28.8331858,25.5462864 L28.3617048,26.1520793 L27.8902239,26.7568625 L27.3509549,27.2939989 L26.8116858,27.8321449 L26.2056406,28.302644 L25.5995953,28.7731432 L24.99355,29.2436423 L24.3197167,29.6475043 L23.6458834,30.0503565 L22.9720501,30.3865716 L22.2314405,30.7227866 L21.5576072,30.9913548 L20.7492096,31.2609327 L20.0086,31.4628636 L19.2669786,31.6637849 L18.458581,31.7990787 L17.6501834,31.8657159 L16.8417858,31.9333628 L16.0333881,32 L15.2249905,31.9333628 L14.4165929,31.8657159 L13.6081953,31.7990787 L12.7997976,31.6637849 L11.9914,31.4628636 L11.2497787,31.2609327 L10.5091691,30.9913548 L9.76754774,30.7227866 L9.09472619,30.3865716 L8.42089288,30.0503565 L7.74705957,29.6475043 L7.07322626,29.2436423 L6.46718098,28.7731432 L5.8611357,28.302644 L5.25407866,27.8321449 L4.71582142,27.2939989 L4.17655242,26.7568625 L3.63728342,26.1520793 L3.16580245,25.5462864 L2.76210952,24.9415031 L2.35740483,24.269073 L1.9537119,23.5966429 L1.61679524,22.9242128 L1.27987859,22.1851455 L1.01074997,21.5127153 L0.740609586,20.773648 L0.53825724,19.9669338 L0.336916656,19.2268568 L0.201340584,18.4201426 L0.0667762742,17.6134284 L0,16.8067142 L0,16 L0,15.2609327 L0.0667762742,14.5885026 L0.13456431,13.8484256 L0.26912862,13.1770051 L0.40369293,12.504575 L0.53825724,11.8321449 L0.942961932,10.5549315 L1.21209055,9.88250142 L1.48223093,9.27670853 L1.75135955,8.67192529 L2.08827621,8.06714205 L2.42519287,7.52899602 L2.8288858,6.92421278 L3.23359049,6.38606676 L3.63728342,5.8489304 L4.04198811,5.37843125 L4.51346908,4.90692245 L4.98495004,4.4364233 L5.45643101,3.96592415 L6.53395725,3.15920995 L7.07322626,2.75635767 L7.61249526,2.35249574 L8.21854053,2.01628068 L8.82458581,1.7477125 L9.43164285,1.41149744 L10.0376881,1.14292926 L10.6437334,0.940998296 L11.3175667,0.739067331 L11.9914,0.538146021 L12.6652333,0.336215056 L12.6652333,3.62970909 L12.6652333,10.5549315 L12.7320096,10.6892156 L12.7997976,10.7558528 L13.00215,10.8234997 L13.2034906,10.8911466 L13.4058429,10.9577838 L15.0904262,10.9577838 L15.2249905,10.9577838 L15.3595548,11.0254307 L15.4941191,11.1597148 L15.4941191,11.2939989 L15.4941191,15.9323531 L15.3595548,15.798069 L15.2249905,15.798069 L11.3853547,15.798069 L11.1152144,15.7314318 L10.9806501,15.7314318 L10.9138738,15.6637849 L10.7782977,15.5295009 L10.7115214,15.461854 L10.7115214,15.3275699 L10.6437334,15.1266486 L10.6437334,4.30213921 L9.83533578,4.70600114 L9.09472619,5.17650028 L8.35310484,5.71464631 L7.61249526,6.25178267 L6.93866195,6.85656591 L6.33261667,7.52899602 L5.79334767,8.26907301 L5.25407866,9.00814034 L4.7825977,9.74821733 L4.37890477,10.5549315 L4.17655242,10.9577838 L4.04198811,11.428283 L3.70507146,12.302644 L3.50271911,13.1770051 L3.30036676,14.1180034 L3.23359049,14.5885026 L3.23359049,15.0590017 L3.16580245,16 L3.16580245,16.6047832 L3.23359049,17.2095665 L3.30036676,17.7477125 L3.3681548,18.3535054 L3.50271911,18.9582886 L3.63728342,19.4964347 L3.83963577,20.033571 L3.9074238,20.3021392 L4.04198811,20.571717 L4.24434046,21.1098631 L4.44568104,21.6469994 L4.98495004,22.6556446 L5.65878336,23.5300057 L5.99570001,24.0005048 L6.33261667,24.471004 L6.7363096,24.8738563 L7.14101429,25.2777182 L7.94941191,26.0167855 L8.42089288,26.3530006 L8.89237385,26.6892156 L9.83533578,27.2273616 L10.3746048,27.4959298 L10.8460857,27.764498 L11.3853547,27.966429 L11.923612,28.1683599 L12.530669,28.302644 L13.0689263,28.504575 L13.6081953,28.5712122 L14.2142405,28.706506 L14.2142405,21.1765003 L11.3853547,21.1765003 L11.1152144,21.1098631 L11.0484381,21.0422162 L10.9138738,21.0422162 L10.7782977,20.9079321 L10.7115214,20.8402852 L10.7115214,20.7060011 L10.6437334,20.5040702 L10.6437334,15.9323531 L10.7115214,16 L10.7782977,16.0676469 L10.9806501,16.201931 L11.1830024,16.2685682 L11.3853547,16.3362151 L15.0904262,16.3362151 L15.2249905,16.3362151 L15.3595548,16.4038619 L15.4941191,16.538146 L15.4941191,16.6724301 L15.4941191,21.1098631 L16.5048691,21.1098631 L16.5048691,16.6724301 L16.5726571,16.538146 L16.6394334,16.4038619 L16.7739977,16.3362151 L16.908562,16.3362151 L20.6146453,16.3362151 L20.8159858,16.2685682 L21.0183382,16.201931 L21.2206905,16.0676469 L21.3552548,15.9323531 L21.3552548,15.9323531 Z" id="icon_nonghan" fill="#20967B" sketch:type="MSShapeGroup"></path>
    </g>
</svg>