<?xml version="1.0" encoding="UTF-8" standalone="no"?>
<svg width="45px" height="24px" viewBox="0 0 45 24" version="1.1" xmlns="http://www.w3.org/2000/svg" xmlns:xlink="http://www.w3.org/1999/xlink" xmlns:sketch="http://www.bohemiancoding.com/sketch/ns">
    <!-- Generator: Sketch 3.3.2 (12043) - http://www.bohemiancoding.com/sketch -->
    <title>Fill 1 + Fill 2 + Fill 3</title>
    <desc>Created with Sketch.</desc>
    <defs></defs>
    <g id="切图" stroke="none" stroke-width="1" fill="none" fill-rule="evenodd" sketch:type="MSPage">
        <g id="Fill-1-+-Fill-2-+-Fill-3" sketch:type="MSLayerGroup">
            <path d="M31.1406316,10.1153684 L28.0004211,10.1153684 L28.0004211,6.94736842 L30.8854737,6.94736842 C30.9637895,6.94736842 31.0282105,6.88168421 31.0282105,6.80084211 L31.0282105,6.18821053 C31.0282105,6.10863158 30.9637895,6.04421053 30.8854737,6.04421053 L23.8686316,6.04421053 C23.7890526,6.04421053 23.7246316,6.10863158 23.7246316,6.18821053 L23.7246316,6.80084211 C23.7246316,6.88168421 23.7890526,6.94736842 23.8686316,6.94736842 L26.7524211,6.94736842 L26.7524211,10.1153684 L23.6134737,10.1153684 C23.5338947,10.1153684 23.4694737,10.1810526 23.4694737,10.2593684 L23.4694737,10.9073684 C23.4694737,10.9882105 23.5338947,11.0526316 23.6134737,11.0526316 L26.7524211,11.0526316 L26.7524211,12.2741053 C26.7524211,12.3549474 26.8155789,12.4206316 26.8951579,12.4206316 L27.8576842,12.4206316 C27.936,12.4206316 28.0004211,12.3549474 28.0004211,12.2741053 L28.0004211,11.0526316 L31.1406316,11.0526316 C31.2189474,11.0526316 31.2821053,10.9882105 31.2821053,10.9073684 L31.2821053,10.2593684 C31.2821053,10.1810526 31.2189474,10.1153684 31.1406316,10.1153684 L31.1406316,10.1153684 Z M25.3035789,9.61389474 L25.3035789,9.61389474 C25.1873684,9.61389474 25.0976842,9.552 25.0610526,9.48 L24.0972632,7.58273684 C24.0593684,7.50694737 24.1061053,7.44631579 24.1806316,7.44631579 L25.1482105,7.44631579 C25.2644211,7.44631579 25.3541053,7.50694737 25.392,7.58273684 L26.3545263,9.48 C26.3924211,9.552 26.3456842,9.61389474 26.2711579,9.61389474 L25.3035789,9.61389474 L25.3035789,9.61389474 Z M37.4046316,9.384 C37.4046316,9.64168421 37.3566316,9.84378947 37.0345263,10.0067368 C36.7755789,10.1368421 36.3473684,10.3427368 35.9633684,10.5258947 C35.5793684,10.3427368 35.1524211,10.1368421 34.8934737,10.0067368 C34.5713684,9.84378947 34.5246316,9.64168421 34.5246316,9.384 L34.5246316,9.10610526 L37.4046316,9.10610526 L37.4046316,9.384 L37.4046316,9.384 Z M39.7717895,8.18905263 L38.5389474,8.18905263 L38.5389474,7.65473684 C38.5389474,7.57136842 38.4732632,7.50442105 38.3911579,7.50442105 L37.5511579,7.50442105 C37.4703158,7.50442105 37.4046316,7.57136842 37.4046316,7.65473684 L37.4046316,8.18905263 L34.5246316,8.18905263 L34.5246316,7.65473684 C34.5246316,7.57136842 34.4576842,7.50442105 34.3768421,7.50442105 L33.5355789,7.50442105 C33.4547368,7.50442105 33.3890526,7.57136842 33.3890526,7.65473684 L33.3890526,8.18905263 L32.1536842,8.18905263 C32.0741053,8.18905263 32.0109474,8.25347368 32.0109474,8.33305263 L32.0109474,8.96210526 C32.0109474,9.04042105 32.0741053,9.10610526 32.1536842,9.10610526 L33.3890526,9.10610526 L33.3890526,9.49768421 C33.3890526,9.95115789 33.5949474,10.3844211 34.1482105,10.656 C34.3591579,10.7608421 34.6181053,10.8884211 34.8947368,11.0210526 C34.4033684,11.2231579 33.9688421,11.3178947 33.5090526,11.3178947 L32.3431579,11.3178947 C32.2610526,11.3178947 32.1966316,11.3823158 32.1966316,11.4644211 L32.1966316,12.0858947 C32.1966316,12.168 32.2610526,12.2349474 32.3431579,12.2349474 L33.4901053,12.2349474 C33.9486316,12.2349474 34.5107368,12.1351579 34.9856842,11.9557895 C35.1789474,11.8837895 35.544,11.7221053 35.9633684,11.5288421 C36.3827368,11.7221053 36.7477895,11.8837895 36.9423158,11.9557895 C37.4172632,12.1351579 37.9781053,12.2349474 38.4378947,12.2349474 L39.5848421,12.2349474 C39.6656842,12.2349474 39.7313684,12.168 39.7313684,12.0858947 L39.7313684,11.4644211 C39.7313684,11.3823158 39.6656842,11.3178947 39.5848421,11.3178947 L38.4176842,11.3178947 C37.9591579,11.3178947 37.5246316,11.2231579 37.032,11.0210526 C37.3086316,10.8884211 37.5688421,10.7608421 37.7797895,10.656 C38.3317895,10.3844211 38.5389474,9.95115789 38.5389474,9.49768421 L38.5389474,9.10610526 L39.7717895,9.10610526 C39.8526316,9.10610526 39.9157895,9.04042105 39.9157895,8.96210526 L39.9157895,8.33305263 C39.9157895,8.25347368 39.8526316,8.18905263 39.7717895,8.18905263 L39.7717895,8.18905263 Z M15.8147368,6.75031579 L21.4585263,6.75031579 L21.4585263,11.3292632 L15.8147368,11.3292632 L15.8147368,6.75031579 Z M21.7389474,5.91663158 L15.5343158,5.91663158 C15.0707368,5.91663158 14.6943158,6.29684211 14.6943158,6.76421053 L14.6943158,11.3823158 C14.6943158,11.8496842 15.0707368,12.2298947 15.5343158,12.2298947 L21.7389474,12.2298947 C22.2037895,12.2298947 22.5789474,11.8496842 22.5789474,11.3823158 L22.5789474,6.76421053 C22.5789474,6.29684211 22.2037895,5.91663158 21.7389474,5.91663158 L21.7389474,5.91663158 Z M29.6046316,7.44631579 L30.5722105,7.44631579 C30.6467368,7.44631579 30.6922105,7.50694737 30.6555789,7.58273684 L29.6930526,9.48 C29.6538947,9.552 29.5642105,9.61389474 29.4492632,9.61389474 L28.4816842,9.61389474 C28.4071579,9.61389474 28.3604211,9.552 28.3983158,9.48 L29.3621053,7.58273684 C29.3987368,7.50694737 29.4884211,7.44631579 29.6046316,7.44631579 L29.6046316,7.44631579 Z M32.2067368,7.54357895 L32.2067368,7.54357895 C32.1271579,7.54357895 32.0627368,7.48042105 32.0627368,7.39957895 L32.0627368,6.91452632 C32.0627368,6.50147368 32.3936842,6.16926316 32.8004211,6.16926316 L35.3393684,6.16926316 L35.3393684,5.81684211 C35.3393684,5.736 35.4037895,5.67284211 35.4821053,5.67284211 L36.4446316,5.67284211 C36.5242105,5.67284211 36.5873684,5.736 36.5873684,5.81684211 L36.5873684,6.16926316 L39.1250526,6.16926316 C39.5330526,6.16926316 39.864,6.50147368 39.864,6.91452632 L39.864,7.39957895 C39.864,7.48042105 39.7995789,7.54357895 39.72,7.54357895 L39.0517895,7.54357895 C38.9722105,7.54357895 38.9090526,7.48042105 38.9090526,7.39957895 L38.9090526,6.97768421 L33.0176842,6.97768421 L33.0176842,7.39957895 C33.0176842,7.48042105 32.9532632,7.54357895 32.8749474,7.54357895 L32.2067368,7.54357895 L32.2067368,7.54357895 Z M10.1873684,7.54357895 L12.3612632,7.54357895 L12.3612632,10.1368421 L10.1873684,10.1368421 L10.1873684,7.54357895 Z M6.70610526,7.54357895 L8.88,7.54357895 L8.88,10.1368421 L6.70610526,10.1368421 L6.70610526,7.54357895 Z M12.7073684,6.60378947 L10.1873684,6.60378947 L10.1873684,5.84210526 C10.1873684,5.76126316 10.1242105,5.69810526 10.0433684,5.69810526 L9.02273684,5.69810526 C8.94315789,5.69810526 8.87873684,5.76126316 8.87873684,5.84210526 L8.87873684,6.60378947 L6.35873684,6.60378947 C5.89515789,6.60378947 5.51873684,6.984 5.51873684,7.45136842 L5.51873684,10.2290526 C5.51873684,10.6976842 5.89515789,11.0766316 6.35873684,11.0766316 L8.87873684,11.0766316 L8.87873684,12.2741053 C8.87873684,12.3549474 8.94315789,12.4206316 9.02273684,12.4206316 L10.0433684,12.4206316 C10.1242105,12.4206316 10.1873684,12.3549474 10.1873684,12.2741053 L10.1873684,11.0766316 L12.7073684,11.0766316 C13.1722105,11.0766316 13.5486316,10.6976842 13.5486316,10.2290526 L13.5486316,7.45136842 C13.5486316,6.984 13.1722105,6.60378947 12.7073684,6.60378947 L12.7073684,6.60378947 Z M20.8825263,9.68589474 L20.0311579,9.68589474 L20.0311579,10.0206316 L19.1886316,10.0206316 L19.1886316,9.27031579 L20.64,9.27031579 L20.64,8.56042105 L19.1886316,8.56042105 L19.1886316,8.04252632 L20.8825263,8.04252632 L20.8825263,7.26947368 L16.3907368,7.26947368 L16.3907368,8.04252632 L18.0846316,8.04252632 L18.0846316,8.56042105 L16.6345263,8.56042105 L16.6345263,9.27031579 L18.0846316,9.27031579 L18.0846316,10.0206316 L16.3907368,10.0206316 L16.3907368,10.7911579 L20.8825263,10.7911579 L20.8825263,9.68589474 L20.8825263,9.68589474 Z" id="Fill-1" fill="#ED6C00" sketch:type="MSShapeGroup"></path>
            <path d="M43.9313684,15.3915789 C43.9313684,16.3945263 43.1267368,17.2130526 42.1326316,17.2130526 L3.12126316,17.2130526 C2.12715789,17.2130526 1.32252632,16.3945263 1.32252632,15.3915789 L1.32252632,3.01263158 C1.32252632,2.00715789 2.12715789,1.19115789 3.12126316,1.19115789 L42.1326316,1.19115789 C43.1267368,1.19115789 43.9313684,2.00715789 43.9313684,3.01263158 L43.9313684,15.3915789 L43.9313684,15.3915789 Z M42.1326316,0.282947368 L3.12126316,0.282947368 C1.632,0.282947368 0.423157895,1.50442105 0.423157895,3.01263158 L0.423157895,21.1806316 C0.423157895,22.6888421 1.632,23.9077895 3.12126316,23.9077895 L42.1326316,23.9077895 C43.6231579,23.9077895 44.8307368,22.6888421 44.8307368,21.1806316 L44.8307368,3.01263158 C44.8307368,1.50442105 43.6231579,0.282947368 42.1326316,0.282947368 L42.1326316,0.282947368 Z" id="Fill-2" fill="#ED6C00" sketch:type="MSShapeGroup"></path>
            <path d="M33.7490526,21.5823158 C33.7490526,21.6581053 33.8071579,21.7187368 33.8816842,21.7187368 C33.9549474,21.7187368 34.0143158,21.6581053 34.0143158,21.5823158 L34.0143158,20.856 C34.0143158,20.7978947 34.0610526,20.7536842 34.1178947,20.7536842 L35.8294737,20.7536842 C35.8863158,20.7536842 35.9330526,20.7978947 35.9330526,20.856 L35.9330526,21.5077895 C35.9330526,21.5823158 35.9924211,21.6429474 36.0656842,21.6429474 C36.1389474,21.6429474 36.1983158,21.5823158 36.1983158,21.5077895 L36.1983158,20.7258947 C36.1983158,20.5983158 36.096,20.496 35.9684211,20.496 L33.9776842,20.496 C33.8513684,20.496 33.7490526,20.5983158 33.7490526,20.7258947 L33.7490526,21.5823158 L33.7490526,21.5823158 Z M36.408,21.9322105 L36.408,21.9322105 L36.4863158,22.0181053 L36.4863158,22.1229474 L36.408,22.1924211 L36.2993684,22.1671579 C35.9482105,21.9574737 35.5755789,21.7957895 35.1852632,21.6846316 C35.1082105,21.6581053 35.0791579,21.6050526 35.0993684,21.5242105 C35.1309474,21.4547368 35.1877895,21.4307368 35.2711579,21.4496842 C35.5894737,21.5292632 35.9684211,21.6909474 36.408,21.9322105 L36.408,21.9322105 Z M36.4736842,20.2522105 L36.4736842,20.2522105 C36.5621053,20.2774737 36.6012632,20.3305263 36.5924211,20.4164211 L36.5305263,20.4934737 L36.4193684,20.5023158 C35.9229474,20.3962105 35.5591579,20.1688421 35.3317895,19.8252632 C35.1663158,20.1423158 34.8505263,20.3242105 34.3831579,20.4353684 C34.2922105,20.4517895 34.2315789,20.4214737 34.2012632,20.3494737 C34.1835789,20.2749474 34.2176842,20.2218947 34.3023158,20.1915789 C34.8378947,20.0450526 35.1372632,19.8037895 35.2042105,19.4210526 L34.7532632,19.4210526 C34.6623158,19.5397895 34.584,19.6256842 34.5195789,19.6787368 C34.4475789,19.7343158 34.3818947,19.7368421 34.3237895,19.6850526 C34.2757895,19.6256842 34.2833684,19.5625263 34.3465263,19.4955789 C34.5170526,19.3237895 34.6421053,19.1469474 34.7204211,18.9612632 C34.7557895,18.8804211 34.8126316,18.8526316 34.8896842,18.8804211 L34.9541053,18.9574737 L34.9477895,19.0686316 L34.8934737,19.1797895 L36.2273684,19.1797895 C36.4307368,19.1797895 36.4837895,19.2581053 36.4408421,19.4210526 C36.3890526,19.5814737 36.3031579,19.7343158 36.1793684,19.8808421 C36.1174737,19.9452632 36.0543158,19.9566316 35.9911579,19.9111579 C35.9317895,19.8543158 35.928,19.7898947 35.9797895,19.7178947 C36.1528421,19.5094737 36.1781053,19.4210526 36.0947368,19.4210526 L35.4846316,19.4210526 C35.4732632,19.4930526 35.4606316,19.5461053 35.4442105,19.5852632 C35.6501053,19.9111579 35.9936842,20.136 36.4736842,20.2522105 L36.4736842,20.2522105 Z M33.5797895,20.4492632 C33.8753684,20.3216842 34.1242105,20.1802105 34.3288421,20.0311579 L34.3957895,19.9313684 L34.368,19.8252632 L34.2694737,19.7785263 L34.1557895,19.8252632 C33.9486316,19.9755789 33.7162105,20.1056842 33.4610526,20.2193684 C33.3776842,20.2585263 33.3473684,20.3166316 33.3814737,20.3911579 C33.4193684,20.4707368 33.4926316,20.4795789 33.5797895,20.4492632 L33.5797895,20.4492632 Z M33.5343158,19.3073684 L33.5608421,19.3162105 C33.7541053,19.368 33.936,19.4324211 34.1077895,19.5094737 C34.1886316,19.5397895 34.248,19.5183158 34.2833684,19.44 L34.2783158,19.3402105 L34.2025263,19.2656842 C34.0294737,19.2 33.8311579,19.1305263 33.6012632,19.056 C33.5204211,19.0383158 33.4610526,19.0686316 33.4357895,19.1469474 C33.4105263,19.2277895 33.4534737,19.2770526 33.5343158,19.3073684 L33.5343158,19.3073684 Z M34.9869474,20.7978947 L34.9869474,20.7978947 C35.0753684,20.8155789 35.112,20.8698947 35.0968421,20.9671579 C35.0210526,21.7275789 34.5145263,22.1153684 33.5797895,22.1343158 C33.4875789,22.1393684 33.432,22.104 33.4143158,22.0256842 C33.4105263,21.9461053 33.456,21.8993684 33.5469474,21.8842105 C34.3591579,21.8652632 34.7848421,21.552 34.824,20.9418947 C34.8454737,20.8458947 34.8997895,20.7978947 34.9869474,20.7978947 L34.9869474,20.7978947 Z M31.1355789,19.056 L31.9174737,19.056 C32.0741053,19.056 32.1524211,19.1305263 32.1511579,19.2795789 L32.1511579,19.8202105 C32.1511579,19.8707368 32.1562105,19.9035789 32.1688421,19.9149474 L32.2572632,19.9338947 L32.5591579,19.9338947 C32.6501053,19.9338947 32.6930526,19.9806316 32.6930526,20.0564211 C32.6930526,20.1385263 32.6412632,20.1802105 32.5591579,20.1865263 L32.1915789,20.1865263 C32.0741053,20.1865263 31.9970526,20.1637895 31.9604211,20.1157895 C31.9212632,20.0753684 31.9023158,19.9869474 31.9048421,19.8454737 L31.9048421,19.3743158 C31.9061053,19.3237895 31.8757895,19.2997895 31.8315789,19.2997895 L31.2088421,19.2997895 C31.1456842,19.2997895 31.1153684,19.3237895 31.1216842,19.3793684 L31.1216842,19.5852632 C31.1216842,19.8922105 30.9827368,20.1246316 30.6783158,20.3115789 C30.5898947,20.3583158 30.5178947,20.3583158 30.4698947,20.2888421 C30.4193684,20.2143158 30.4446316,20.1448421 30.5254737,20.0943158 C30.7781053,19.9503158 30.8867368,19.7671579 30.8816842,19.5296842 L30.8816842,19.2884211 C30.8816842,19.1242105 30.9562105,19.056 31.1355789,19.056 L31.1355789,19.056 Z M32.1372632,20.3330526 L30.792,20.3330526 C30.7288421,20.3330526 30.6858947,20.3823158 30.6858947,20.4656842 C30.6858947,20.5515789 30.7326316,20.5957895 30.792,20.5957895 L32.0374737,20.5957895 C32.0816842,20.6021053 32.0943158,20.6349474 32.0715789,20.6981053 C31.9667368,20.9418947 31.7823158,21.1616842 31.5170526,21.3612632 C31.3149474,21.1945263 31.1444211,20.9974737 30.984,20.7461053 L30.8867368,20.6652632 L30.7705263,20.6816842 C30.6985263,20.7397895 30.6884211,20.8117895 30.744,20.9014737 C30.9157895,21.1528421 31.0812632,21.3498947 31.2631579,21.5166316 C31.0471579,21.6429474 30.7705263,21.7515789 30.4282105,21.8374737 C30.3372632,21.8677895 30.3056842,21.9258947 30.3284211,22.0155789 C30.3637895,22.0863158 30.4294737,22.1153684 30.5267368,22.0951579 C30.9006316,22.0042105 31.2252632,21.8741053 31.5031579,21.7048421 C31.7734737,21.8930526 32.1410526,22.0256842 32.6058947,22.1090526 C32.6993684,22.1178947 32.7511579,22.0850526 32.7663158,22.0016842 C32.7675789,21.912 32.7221053,21.8576842 32.6324211,21.8374737 C32.3191579,21.7957895 32.0235789,21.6934737 31.7444211,21.5292632 C31.9882105,21.3246316 32.1865263,21.0555789 32.3381053,20.7258947 C32.3911579,20.6096842 32.4012632,20.5162105 32.3633684,20.4442105 C32.3242105,20.3709474 32.2496842,20.3355789 32.1372632,20.3330526 L32.1372632,20.3330526 Z M30.2021053,19.0635789 L30.2021053,19.0635789 C30.2021053,19.0004211 30.1578947,18.9612632 30.0795789,18.9612632 C30.0037895,18.9612632 29.9608421,19.0004211 29.9608421,19.0635789 L29.9608421,19.6787368 L29.6450526,19.6787368 C29.5831579,19.6787368 29.5465263,19.7204211 29.5465263,19.8 C29.5465263,19.8783158 29.5818947,19.9225263 29.6450526,19.9225263 L29.9608421,19.9225263 L29.9608421,20.7397895 C29.9216842,20.7562105 29.8610526,20.7903158 29.7751579,20.8345263 C29.6905263,20.8787368 29.6298947,20.9090526 29.5932632,20.928 C29.5364211,20.9595789 29.5187368,21.0126316 29.5427368,21.0871579 C29.5781053,21.1553684 29.6235789,21.1831579 29.6867368,21.1642105 C29.7296842,21.1477895 29.8168421,21.1035789 29.9469474,21.0315789 L29.9608421,21.0227368 L29.9608421,21.7793684 C29.9608421,21.8463158 29.9103158,21.8538947 29.7738947,21.7957895 L29.6564211,21.7957895 L29.5945263,21.8842105 C29.5882105,21.9675789 29.6223158,22.0345263 29.712,22.0673684 C30.0442105,22.176 30.2071579,22.0976842 30.2021053,21.8324211 L30.2021053,20.9014737 C30.2728421,20.8623158 30.3903158,20.7928421 30.5469474,20.6930526 L30.6176842,20.6096842 L30.5911579,20.4909474 C30.5368421,20.4214737 30.5002105,20.4189474 30.4282105,20.4631579 L30.408,20.4770526 C30.3271579,20.5351579 30.2589474,20.5793684 30.2021053,20.6096842 L30.2021053,19.9225263 L30.5014737,19.9225263 C30.5583158,19.9225263 30.5962105,19.8783158 30.5962105,19.8 C30.5962105,19.7229474 30.5608421,19.6787368 30.5014737,19.6787368 L30.2021053,19.6787368 L30.2021053,19.0635789 L30.2021053,19.0635789 Z M19.8922105,19.5094737 L20.4745263,19.5094737 C20.5503158,19.5069474 20.5945263,19.4677895 20.5945263,19.3844211 C20.5945263,19.3023158 20.5477895,19.2581053 20.4745263,19.2517895 L19.9717895,19.2517895 C19.9995789,19.1494737 20.0122105,19.0938947 20.0122105,19.0825263 C20.0273684,19.0004211 19.9932632,18.9448421 19.9111579,18.9195789 C19.824,18.9082105 19.7684211,18.9410526 19.7456842,19.0218947 C19.6534737,19.4324211 19.5018947,19.7823158 19.2909474,20.0778947 C19.2341053,20.1637895 19.2404211,20.2357895 19.3098947,20.2913684 L19.4210526,20.3115789 L19.5322105,20.2383158 L19.6054737,20.1385263 L19.752,20.1385263 L19.752,20.5907368 L19.4084211,20.5907368 C19.3414737,20.5932632 19.3010526,20.6349474 19.3010526,20.7183158 C19.3010526,20.7978947 19.3427368,20.8433684 19.4084211,20.8484211 L19.752,20.8484211 L19.752,21.8993684 C19.752,22.0256842 19.7810526,22.1090526 19.8378947,22.1482105 C19.896,22.1873684 19.9717895,22.176 20.0652632,22.1153684 C20.2168421,22.0155789 20.3747368,21.8741053 20.5402105,21.6909474 C20.5945263,21.624 20.5894737,21.5583158 20.5275789,21.4938947 L20.4277895,21.4635789 L20.3330526,21.5166316 C20.2370526,21.6303158 20.1562105,21.7136842 20.0930526,21.7654737 L20.0273684,21.7869474 L20.0058947,21.7326316 L20.0058947,20.8484211 L20.4543158,20.8484211 C20.5174737,20.8433684 20.5578947,20.7978947 20.5578947,20.712 C20.5578947,20.6324211 20.52,20.5932632 20.4543158,20.5907368 L20.0058947,20.5907368 L20.0058947,20.1385263 L20.3797895,20.1385263 C20.4568421,20.136 20.5023158,20.0917895 20.5023158,20.0147368 C20.5023158,19.9313684 20.4555789,19.8871579 20.3797895,19.8808421 L19.7305263,19.8808421 L19.7570526,19.8290526 C19.8202105,19.6926316 19.8656842,19.5877895 19.8922105,19.5094737 L19.8922105,19.5094737 Z M20.9141053,20.4189474 L20.9141053,20.0084211 L22.0092632,20.0084211 L22.0092632,20.3191579 C22.0092632,20.3747368 21.9650526,20.4189474 21.9107368,20.4189474 L20.9141053,20.4189474 L20.9141053,20.4189474 Z M20.9141053,19.4349474 C20.9141053,19.3793684 20.9583158,19.3351579 21.0126316,19.3351579 L21.9107368,19.3351579 C21.9650526,19.3351579 22.0092632,19.3793684 22.0092632,19.4349474 L22.0092632,19.7532632 L20.9141053,19.7532632 L20.9141053,19.4349474 L20.9141053,19.4349474 Z M22.5145263,21.9044211 L22.4311579,21.8185263 C22.2,21.6985263 22.0117895,21.5658947 21.864,21.4168421 L21.9208421,21.3612632 C22.0673684,21.2273684 22.1886316,21.1061053 22.2833684,20.9962105 C22.3351579,20.9317895 22.3288421,20.8673684 22.2644211,20.8067368 L22.1658947,20.7789474 L22.0774737,20.8345263 C21.9524211,20.9785263 21.8298947,21.1061053 21.7098947,21.2109474 C21.5987368,21.0429474 21.5178947,20.856 21.4686316,20.6715789 L22.0446316,20.6715789 C22.1646316,20.6715789 22.2631579,20.5717895 22.2631579,20.4492632 L22.2631579,19.3048421 C22.2631579,19.1823158 22.1646316,19.0825263 22.0446316,19.0825263 L20.8787368,19.0825263 C20.7587368,19.0825263 20.6602105,19.1823158 20.6602105,19.3048421 L20.6614737,21.8993684 C20.6652632,22.1570526 20.7764211,22.2429474 20.9949474,22.1482105 C21.1250526,22.0762105 21.2829474,21.9461053 21.4686316,21.7541053 C21.5305263,21.6745263 21.5292632,21.6025263 21.4635789,21.5330526 L21.3574737,21.5002105 L21.2551579,21.5633684 C21.1616842,21.6821053 21.0631579,21.7743158 20.9621053,21.8425263 L20.9267368,21.8513684 L20.9141053,21.8096842 L20.9141053,20.6715789 L21.1945263,20.6715789 C21.3385263,21.2968421 21.7048421,21.7604211 22.2922105,22.0458947 L22.4147368,22.0736842 L22.5044211,22.0117895 L22.5145263,21.9044211 L22.5145263,21.9044211 Z M24.4092632,19.1242105 L26.0311579,19.1242105 C26.1233684,19.1242105 26.1827368,19.1772632 26.1827368,19.2606316 C26.1827368,19.3490526 26.1246316,19.3957895 26.0311579,19.3957895 L24.4092632,19.3957895 C24.3221053,19.3907368 24.2690526,19.3515789 24.2690526,19.2606316 C24.2690526,19.1747368 24.3221053,19.128 24.4092632,19.1242105 L24.4092632,19.1242105 Z M24.2728421,19.9149474 L26.2054737,19.9149474 C26.2863158,19.92 26.3368421,19.9616842 26.3368421,20.0501053 C26.3368421,20.1448421 26.2863158,20.1802105 26.2054737,20.1865263 L25.8189474,20.1865263 L25.8189474,21.6189474 C25.8189474,21.888 25.7444211,22.0458947 25.5751579,22.0951579 C25.4058947,22.1570526 25.1052632,22.1292632 24.6707368,22.0067368 L24.576,21.9397895 L24.5722105,21.8185263 L24.6404211,21.7326316 C24.6770526,21.7162105 24.7111579,21.7187368 24.7642105,21.7326316 C25.0736842,21.8185263 25.2795789,21.8538947 25.3793684,21.8324211 C25.4867368,21.8122105 25.5385263,21.7351579 25.5385263,21.5823158 L25.5385263,20.1865263 L24.2728421,20.1865263 C24.1869474,20.1802105 24.1351579,20.1423158 24.1351579,20.0450526 C24.1351579,19.9616842 24.1856842,19.9174737 24.2728421,19.9149474 L24.2728421,19.9149474 Z M23.6816842,19.0635789 L23.7625263,18.9802105 L23.8673684,18.9827368 L23.9381053,19.0749474 L23.9216842,19.1911579 C23.7587368,19.4905263 23.5882105,19.7456842 23.4075789,19.9566316 L23.3115789,20.0058947 L23.2105263,19.9692632 C23.1473684,19.9061053 23.1435789,19.8391579 23.1991579,19.7734737 C23.3962105,19.5486316 23.5578947,19.3124211 23.6816842,19.0635789 L23.6816842,19.0635789 Z M23.3658947,20.9090526 L23.3658947,20.9090526 L23.5338947,20.712 L23.5338947,22.0282105 C23.5376842,22.1229474 23.5831579,22.1810526 23.6677895,22.1810526 C23.7574737,22.1810526 23.7966316,22.1254737 23.8004211,22.0282105 L23.8004211,20.3141053 L23.8383158,20.2522105 C23.8964211,20.1587368 23.9343158,20.0829474 23.9557895,20.0311579 L23.9633684,19.9086316 L23.8875789,19.8227368 L23.7814737,19.8252632 L23.7006316,19.9149474 C23.5591579,20.2105263 23.3823158,20.4770526 23.1738947,20.712 L23.1271579,20.8206316 L23.1675789,20.9229474 L23.2648421,20.9621053 L23.3658947,20.9090526 L23.3658947,20.9090526 Z M13.9187368,20.5136842 C13.8934737,20.4442105 13.8669474,20.3823158 13.8454737,20.3355789 L13.8012632,20.2421053 L13.7886316,20.1587368 L13.7949474,20.0829474 L13.9301053,19.4437895 L13.9326316,19.44 L13.9338947,19.4210526 L13.9364211,19.4122105 L13.9389474,19.3818947 C13.9503158,19.2795789 13.944,19.2101053 13.9225263,19.1747368 C13.8985263,19.1305263 13.8290526,19.1103158 13.7368421,19.1103158 L13.2505263,19.1103158 C13.0850526,19.1103158 13.0294737,19.1962105 13.0294737,19.3263158 L13.0294737,22.0534737 C13.0294737,22.1292632 13.0787368,22.176 13.1633684,22.176 C13.2492632,22.176 13.2972632,22.1292632 13.2972632,22.0534737 L13.2972632,19.4766316 C13.2972632,19.4046316 13.3237895,19.3743158 13.3907368,19.3743158 L13.584,19.3743158 C13.6357895,19.3743158 13.6648421,19.4021053 13.6686316,19.4576842 L13.5461053,20.0362105 L13.536,20.1587368 C13.536,20.2168421 13.5423158,20.28 13.5713684,20.3469474 L13.6143158,20.4416842 C13.6446316,20.5073684 13.6863158,20.6021053 13.7178947,20.6981053 C13.7507368,20.7953684 13.7646316,20.8989474 13.7646316,20.9621053 C13.7646316,21.0454737 13.7431579,21.0947368 13.7204211,21.12 C13.6964211,21.1452632 13.6749474,21.1616842 13.6130526,21.1642105 L13.5069474,21.1452632 C13.44,21.1275789 13.3705263,21.1667368 13.3515789,21.2362105 C13.3326316,21.3031579 13.3717895,21.3751579 13.44,21.3915789 C13.4993684,21.408 13.5574737,21.4193684 13.6130526,21.4193684 L13.6168421,21.4193684 C13.7330526,21.4193684 13.8517895,21.3776842 13.9263158,21.2917895 C14.0008421,21.2058947 14.0248421,21.0871579 14.0248421,20.9621053 C14.0235789,20.8092632 13.9717895,20.6488421 13.9187368,20.5136842 L13.9187368,20.5136842 Z M14.1751579,20.4050526 C14.1044211,20.4353684 14.0905263,20.4985263 14.1258947,20.5856842 C14.2850526,20.9317895 14.3962105,21.2475789 14.4606316,21.5292632 C14.4846316,21.6189474 14.5364211,21.6656842 14.6147368,21.6467368 C14.6842105,21.6328421 14.7183158,21.5658947 14.7006316,21.4698947 C14.6437895,21.1642105 14.5212632,20.8395789 14.352,20.4884211 C14.3065263,20.4075789 14.2446316,20.3709474 14.1751579,20.4050526 L14.1751579,20.4050526 Z M16.0471579,19.7898947 L16.0471579,19.7898947 L16.0421053,19.9035789 L15.9549474,19.9806316 L15.8362105,19.9755789 C15.4585263,19.7823158 15.1932632,19.5928421 15.0391579,19.4071579 C14.9608421,19.3326316 14.9153684,19.2934737 14.9002105,19.2934737 C14.8888421,19.2934737 14.8522105,19.3301053 14.7890526,19.4046316 C14.6766316,19.5650526 14.5098947,19.7734737 14.1334737,20.0147368 C14.0450526,20.0690526 13.9768421,20.0589474 13.9212632,19.992 C13.8985263,19.9591579 13.872,19.8593684 13.9730526,19.7898947 C14.2926316,19.5789474 14.5162105,19.3629474 14.7397895,19.0774737 C14.8534737,18.9145263 14.9658947,18.9082105 15.0745263,19.056 C15.3031579,19.3465263 15.5974737,19.5650526 15.9625263,19.7115789 L16.0471579,19.7898947 L16.0471579,19.7898947 Z M14.8004211,20.2661053 L14.8004211,20.2661053 C14.8736842,20.2471579 14.9267368,20.2888421 14.9545263,20.3747368 C15.0391579,20.6576842 15.0985263,20.976 15.1338947,21.3271579 C15.1402105,21.4218947 15.1073684,21.4825263 15.0315789,21.4938947 C14.9507368,21.5027368 14.904,21.4471579 14.8875789,21.3549474 C14.8458947,21.0227368 14.7877895,20.7157895 14.7132632,20.4353684 C14.6943158,20.3494737 14.7221053,20.2863158 14.8004211,20.2661053 L14.8004211,20.2661053 Z M15.4888421,20.3797895 C15.4181053,20.8458947 15.3271579,21.2273684 15.2147368,21.5292632 C15.1831579,21.6189474 15.2008421,21.6909474 15.2778947,21.7162105 C15.3865263,21.7515789 15.4307368,21.6555789 15.4484211,21.6101053 C15.5911579,21.2311579 15.7048421,20.8345263 15.7414737,20.4214737 C15.7515789,20.3216842 15.7187368,20.2585263 15.6353684,20.2433684 C15.5545263,20.2307368 15.5052632,20.2863158 15.4888421,20.3797895 L15.4888421,20.3797895 Z M15.8816842,21.7957895 L15.8816842,21.7957895 C15.9511579,21.8021053 15.9865263,21.8425263 15.9928421,21.9258947 C15.9865263,22.0067368 15.9511579,22.0484211 15.8816842,22.0534737 L14.0917895,22.0534737 C14.0172632,22.0484211 13.9768421,22.0067368 13.9743158,21.9233684 C13.9793684,21.8425263 14.0210526,21.7983158 14.0981053,21.7957895 L15.8816842,21.7957895 L15.8816842,21.7957895 Z M15.4686316,19.872 L14.4606316,19.872 C14.3823158,19.8783158 14.3406316,19.92 14.3343158,20.0033684 C14.3381053,20.0892632 14.3772632,20.1334737 14.4530526,20.1385263 L15.4686316,20.1385263 C15.5368421,20.1334737 15.5722105,20.0892632 15.5785263,20.0058947 C15.5722105,19.9225263 15.5368421,19.8783158 15.4686316,19.872 L15.4686316,19.872 Z M9.744,19.0332632 L9.64673684,18.9663158 C9.552,18.9612632 9.49263158,19.0168421 9.46863158,19.1305263 C9.39157895,19.5877895 9.22357895,19.9642105 8.96842105,20.2610526 C8.91536842,20.3355789 8.91789474,20.4101053 8.97726316,20.4821053 L9.07578947,20.5237895 L9.17431579,20.4682105 C9.22863158,20.4075789 9.30189474,20.28 9.30189474,20.28 L9.30189474,22.0231579 C9.30568421,22.1153684 9.34989474,22.1709474 9.43831579,22.1709474 C9.52547368,22.1709474 9.57094737,22.1153684 9.57473684,22.0231579 L9.57473684,19.8063158 C9.672,19.5738947 9.73389474,19.3629474 9.76294737,19.1722105 C9.77178947,19.1166316 9.76547368,19.0724211 9.744,19.0332632 L9.744,19.0332632 Z M10.2214737,19.9389474 C10.1671579,19.9389474 10.1229474,19.8947368 10.1229474,19.8416842 L10.1229474,19.3882105 C10.1229474,19.3326316 10.1671579,19.2884211 10.2214737,19.2884211 L11.6475789,19.2884211 C11.7018947,19.2884211 11.7473684,19.3326316 11.7473684,19.3882105 L11.7473684,19.8416842 C11.7473684,19.8947368 11.7018947,19.9389474 11.6475789,19.9389474 L10.2214737,19.9389474 L10.2214737,19.9389474 Z M12.3094737,21.7301053 L12.3094737,21.7301053 L12.2905263,21.8488421 L12.2084211,21.9296842 L12.1073684,21.9258947 C11.6526316,21.6821053 11.2989474,21.4029474 11.0463158,21.0846316 L11.0463158,22.0597895 C11.0425263,22.1368421 10.9970526,22.1810526 10.9212632,22.1810526 C10.8391579,22.1810526 10.7962105,22.1343158 10.7911579,22.0597895 L10.7911579,21.0846316 C10.6067368,21.3726316 10.2884211,21.6353684 9.83621053,21.8791579 C9.77052632,21.9094737 9.71494737,21.8905263 9.66821053,21.8185263 C9.62526316,21.7326316 9.63536842,21.6682105 9.696,21.6303158 C10.2164211,21.336 10.5612632,21.0555789 10.7317895,20.7928421 L9.79073684,20.7928421 C9.72631579,20.7928421 9.68715789,20.7397895 9.68715789,20.6741053 C9.68715789,20.6096842 9.72631579,20.5566316 9.79073684,20.5566316 L10.7911579,20.5566316 L10.7911579,20.1915789 L10.0875789,20.1915789 C9.96757895,20.1915789 9.86905263,20.0917895 9.86905263,19.9692632 L9.86905263,19.2581053 C9.86905263,19.1355789 9.96757895,19.0357895 10.0875789,19.0357895 L11.7827368,19.0357895 C11.9027368,19.0357895 12.0012632,19.1355789 12.0012632,19.2581053 L12.0012632,19.9692632 C12.0012632,20.0917895 11.9027368,20.1915789 11.7827368,20.1915789 L11.0463158,20.1915789 L11.0463158,20.5566316 L12.1376842,20.5566316 C12.2021053,20.5566316 12.2425263,20.6096842 12.2425263,20.6741053 C12.2425263,20.7397895 12.2021053,20.7928421 12.1376842,20.7928421 L11.1258947,20.7928421 C11.3229474,21.1111579 11.6968421,21.3966316 12.2488421,21.6517895 L12.3094737,21.7301053 L12.3094737,21.7301053 Z M28.1330526,20.5465263 C28.1330526,20.6715789 28.0345263,20.7713684 27.9107368,20.7713684 C27.7894737,20.7713684 27.6896842,20.6715789 27.6896842,20.5465263 C27.6896842,20.424 27.7894737,20.3216842 27.9107368,20.3216842 C28.0345263,20.3216842 28.1330526,20.424 28.1330526,20.5465263 L28.1330526,20.5465263 Z M17.904,20.5465263 C17.904,20.6715789 17.8042105,20.7713684 17.6816842,20.7713684 C17.5578947,20.7713684 17.4593684,20.6715789 17.4593684,20.5465263 C17.4593684,20.424 17.5578947,20.3216842 17.6816842,20.3216842 C17.8042105,20.3216842 17.904,20.424 17.904,20.5465263 L17.904,20.5465263 Z" id="Fill-3" fill="#FFFFFF" sketch:type="MSShapeGroup"></path>
        </g>
    </g>
</svg>