<?xml version="1.0" encoding="UTF-8" standalone="no"?>
<svg width="32px" height="28px" viewBox="0 0 32 28" version="1.1" xmlns="http://www.w3.org/2000/svg" xmlns:xlink="http://www.w3.org/1999/xlink" xmlns:sketch="http://www.bohemiancoding.com/sketch/ns">
    <!-- Generator: Sketch 3.3.2 (12043) - http://www.bohemiancoding.com/sketch -->
    <title>Fill 228 + Fill 229 + Fill 230</title>
    <desc>Created with Sketch.</desc>
    <defs></defs>
    <g id="切图" stroke="none" stroke-width="1" fill="none" fill-rule="evenodd" sketch:type="MSPage">
        <g id="Fill-228-+-Fill-229-+-Fill-230" sketch:type="MSLayerGroup" transform="translate(0.000000, -1.000000)" fill="#0070B0">
            <g transform="translate(0.000000, 0.866667)" sketch:type="MSShapeGroup">
                <path d="M12.7927771,9.53100304 C12.7927771,9.53100304 5.22437714,9.92641588 5.22437714,14.4215377 C5.22437714,18.9127124 4.92853714,27.9958306 4.92853714,27.9958306 L0.0183885714,23.206529 L0.0183885714,11.225729 C0.0183885714,11.225729 1.39403429,4.93975616 6.20764571,4.93975616 C11.0243657,4.93975616 12.7927771,9.53100304 12.7927771,9.53100304 L12.7927771,9.53100304 Z" id="Fill-228"></path>
                <path d="M18.98088,18.8090414 C18.98088,18.8090414 26.5457829,18.4136285 26.5457829,13.9185067 C26.5457829,9.42535839 26.8447429,0.347000062 26.8447429,0.347000062 L31.7595543,5.13316713 L31.7595543,17.1174499 C31.7595543,17.1174499 30.3827429,23.4009848 25.5656229,23.4009848 C20.7500686,23.4009848 18.98088,18.8090414 18.98088,18.8090414 L18.98088,18.8090414 Z" id="Fill-229"></path>
                <path d="M5.42328,18.7125681 C5.42328,18.7125681 12.74568,19.0126685 13.38096,13.5255318 C13.8761029,9.25899709 15.4557143,5.64200285 19.2774971,5.33563336 C23.0136229,5.03274667 25.5656229,7.57959541 25.9552686,9.12850853 C23.7006743,9.18179522 19.7664,9.37636713 18.6873714,14.5658414 C18.1953486,18.2147612 16.7698629,23.004411 12.1995429,23.004411 C6.80204571,23.004411 5.42328,18.7125681 5.42328,18.7125681 L5.42328,18.7125681 Z" id="Fill-230"></path>
            </g>
        </g>
    </g>
</svg>