<?xml version="1.0" encoding="UTF-8" standalone="no"?>
<svg width="30px" height="30px" viewBox="0 0 30 30" version="1.1" xmlns="http://www.w3.org/2000/svg" xmlns:xlink="http://www.w3.org/1999/xlink" xmlns:sketch="http://www.bohemiancoding.com/sketch/ns">
    <!-- Generator: Sketch 3.3.2 (12043) - http://www.bohemiancoding.com/sketch -->
    <title>shenzhenfazhan</title>
    <desc>Created with Sketch.</desc>
    <defs></defs>
    <g id="切图" stroke="none" stroke-width="1" fill="none" fill-rule="evenodd" sketch:type="MSPage">
        <path d="M4.19730722,0.0221438752 C4.23195913,0.163458876 25.2487969,0.0768725167 25.1838433,0.0221438752 C25.2487969,0.0768725167 29.7129358,-0.698423736 29.9807659,3.61983578 C29.9451157,3.58710343 29.9400463,24.9729389 29.9807659,25.2059872 C29.9400463,24.9729389 30.6893078,29.9571285 25.7834587,30.0029098 C25.7597953,30.0029098 4.83623504,29.943195 4.79692254,30.0029098 C4.83623504,29.943195 0.0466387446,30.4447988 0,25.2059872 C0,25.4287614 0.0466387446,4.81921737 0,4.81906642 C0.0466387446,4.81921737 -0.138902348,0.0718962892 4.19730722,0.0221438752 Z M5.39653786,5.41868173 C5.44325041,5.60263809 15.7819577,14.4425408 24.584228,5.41868173 C24.584228,5.41868173 16.1079301,15.175367 24.584228,24.0067566 C24.5375155,24.1992261 13.4534383,16.6410192 5.39653786,25.2059872 C5.39653786,25.2059872 13.9418892,15.2293542 5.39653786,5.41868173 Z" id="shenzhenfazhan" fill="#0088CF" sketch:type="MSShapeGroup"></path>
    </g>
</svg>