<?xml version="1.0" encoding="UTF-8" standalone="no"?>
<svg width="32px" height="20px" viewBox="0 0 32 20" version="1.1" xmlns="http://www.w3.org/2000/svg" xmlns:xlink="http://www.w3.org/1999/xlink" xmlns:sketch="http://www.bohemiancoding.com/sketch/ns">
    <!-- Generator: Sketch 3.3.2 (12043) - http://www.bohemiancoding.com/sketch -->
    <title>Fill</title>
    <desc>Created with Sketch.</desc>
    <defs></defs>
    <g id="切图" stroke="none" stroke-width="1" fill="none" fill-rule="evenodd" sketch:type="MSPage">
        <path d="M5.84966845,3.81251658 L5.84966845,4.3389921 L5.3218795,4.3389921 L5.3218795,3.81251658 L5.84966845,3.81251658 L5.84966845,3.81251658 Z M5.81179323,2.60491968 L6.33584029,2.60491968 L6.33584029,3.13534399 L5.81179323,3.13534399 L5.81179323,2.60491968 L5.81179323,2.60491968 Z M6.565282,2.03904804 L6.565282,1.51009304 L7.08567843,1.51009304 L7.08567843,2.03904804 L6.565282,2.03904804 L6.565282,2.03904804 Z M4.83260463,2.69528282 L5.35975472,2.69528282 L5.35975472,3.19071897 L4.83260463,3.19071897 L4.83260463,2.69528282 L4.83260463,2.69528282 Z M3.6662303,4.87354888 L4.15486631,4.87354888 L4.15486631,5.40489151 L3.6662303,5.40489151 L3.6662303,4.87354888 L3.6662303,4.87354888 Z M2.51235936,6.04174965 L2.51235936,5.55007864 L3.03458111,5.55007864 L3.03458111,6.04174965 L2.51235936,6.04174965 L2.51235936,6.04174965 Z M4.19155508,3.79286444 L3.67992014,3.79286444 L3.67992014,3.25922599 L4.19155508,3.25922599 L4.19155508,3.79286444 L4.19155508,3.79286444 Z M19.6398089,5.19285035 L20.461108,5.21195151 L21.278574,5.26640816 L22.0501333,5.35208785 L22.8011579,5.51224366 L23.5167715,5.67423613 L24.1987993,5.90005216 L24.8466025,6.1671928 L25.4906638,6.47088276 L26.0490267,6.78651094 L26.3088599,6.96540058 L26.5556421,7.14245357 L26.9753725,7.49775337 L27.3247373,7.8856537 L27.5672299,8.276309 L27.7766845,8.70039132 L27.8849255,9.1427483 L27.9141305,9.35791177 L27.9346652,9.6046656 L27.8979765,9.94214991 L27.846959,10.2946947 L27.7598916,10.614088 L27.7263971,10.6825032 L27.7039458,10.7191444 L27.7039458,10.7725909 L27.6729155,10.9521233 L27.5299023,11.2690372 L27.3769412,11.5905426 L27.2725333,11.7326075 L27.217774,11.80139 L27.1841882,11.890192 L26.9908877,12.2089425 L26.7316021,12.4916946 L26.4655629,12.7760079 L26.4145455,12.7941907 L26.3772178,12.8298217 L26.3088599,12.9042979 L26.1733305,13.0418629 L25.8562738,13.3249824 L25.4906638,13.5757768 L25.386256,13.630509 L25.2960856,13.696812 L25.125784,13.8395197 L24.7222988,14.0875592 L24.3025683,14.3543325 L23.8307251,14.5629758 L23.3775002,14.7778638 L22.8906895,14.9727323 L22.6432684,15.0628199 L22.4144656,15.1729271 L22.1533547,15.2385873 L21.9083979,15.3314299 L21.6510289,15.4014981 L21.4042467,15.4872696 L20.8813861,15.6089476 L20.3765048,15.7534001 L19.8120271,15.8438551 L19.5328456,15.8779249 L19.3985939,15.897026 L19.2723736,15.9310959 L18.7152884,15.9845424 L18.155739,16.056539 L17.5645205,16.0874866 L16.9708378,16.1271582 L16.3596321,16.1271582 L15.7646717,16.1424942 L14.5250111,16.0727934 L13.3580891,15.9470747 L12.2221975,15.7534001 L11.663287,15.6279569 L11.1354068,15.5072891 L10.5963922,15.3440109 L10.0897768,15.1847735 L9.58361783,14.9917416 L9.11487772,14.8159743 L8.62313868,14.6026475 L8.17110018,14.3850045 L7.71851408,14.1428423 L7.29823601,13.8926907 L6.86554581,13.6089284 L6.47757576,13.3415122 L6.11077932,13.0556378 L5.77756863,12.7760079 L5.46425383,12.4760831 L5.20432941,12.1907596 L4.94011551,11.890192 L4.73184742,11.6071643 L4.36377326,10.9662655 L4.10083708,10.3306931 L4.01504742,9.97814823 L3.9596492,9.6572856 L3.94605062,8.98791877 L3.99761569,8.04737067 L4.08714724,7.6044627 L4.20898681,7.17624792 L4.3265369,6.73297261 L4.51919857,6.30916579 L4.99359715,5.51224366 L5.25653333,5.10276271 L5.58727986,4.71394405 L5.9193041,4.3389921 L6.31658324,3.98617177 L6.71879073,3.61268914 L7.1732934,3.27988829 L7.64395009,2.94424064 L8.18734545,2.62677581 L8.18734545,1.96677589 L7.66384599,1.96677589 L7.66384599,1.43947388 L7.13724349,1.43947388 L7.13724349,0.940548098 L7.66384599,0.940548098 L7.66384599,1.43947388 L8.18734545,1.43947388 L8.18734545,0.940548098 L8.71330909,0.940548098 L8.71330909,0.409480958 L9.20066738,0.409480958 L9.20066738,0 L8.31037148,0.267783466 L7.47355722,0.606461594 L6.64979394,0.973424121 L5.88325419,1.38630288 L5.88325419,2.03904804 L5.35975472,2.03904804 L5.35975472,1.66933053 L4.69707522,2.05622071 L4.08714724,2.46478334 L3.51016613,2.87196849 L3.0035508,3.31395814 L2.51235936,3.73969344 L2.08085561,4.20289639 L1.67426738,4.6592119 L1.32736684,5.15786218 L0.992878431,5.63603383 L0.733045276,6.15029563 L0.507984314,6.66171062 L0.332663102,7.19746121 L0.17659893,7.73082417 L0.0702745098,8.29320618 L0.0156064171,8.8615573 L0,9.44799942 L0.0156064171,9.95748593 L0.0702745098,10.4917672 L0.159167201,11.001621 L0.27735615,11.5204745 L0.438348663,11.9978196 L0.645977897,12.4916946 L0.871677718,12.9655501 L1.17066381,13.4491399 L1.46536043,13.8926907 L1.62206346,14.1069358 L1.81171337,14.3349558 L2.18033512,14.7581198 L2.61621961,15.2029563 L3.05949661,15.6089476 L3.56182246,16.0158573 L4.10083708,16.4114715 L4.67717932,16.8178302 L5.25653333,17.1700077 L5.86582246,17.5247565 L6.47757576,17.841854 L7.12172834,18.1465541 L7.76953155,18.4102051 L8.43230232,18.6579691 L9.11487772,18.8891114 L9.82857469,19.1011526 L10.5249312,19.2628695 L11.2598018,19.4233008 L12.7804692,19.6697792 L14.3347223,19.8130378 L15.1380421,19.8465567 L15.9748563,19.862811 L16.7749818,19.8465567 L17.5974674,19.8130378 L18.3820777,19.7392045 L19.1685134,19.6697792 L19.5328456,19.5965887 L19.9189904,19.5458972 L20.285148,19.4749107 L20.6712014,19.4233008 L21.0218439,19.3332132 L21.3848984,19.2628695 L22.119769,19.1011526 L22.8011579,18.8891114 L23.5012563,18.6579691 L24.1639358,18.4102051 L24.8267066,18.1465541 L25.4534275,17.841854 L26.0844378,17.5247565 L26.6937269,17.1700077 L27.3048414,16.8178302 L27.5672299,16.601381 L27.846959,16.4114715 L28.3866125,16.0158573 L28.6178795,15.8038161 L28.8590945,15.6089476 L29.0854332,15.4014981 L29.33039,15.2029563 L29.3689041,15.1325208 L29.4186439,15.078156 L29.5243294,14.9727323 L29.7345141,14.7581198 L30.1379993,14.3349558 L30.203893,14.2107983 L30.2896827,14.1069358 L30.4630873,13.8926907 L30.5352784,13.7700943 L30.6197904,13.6636605 L30.7963893,13.4491399 L30.920693,13.2004576 L31.0575002,12.9655501 L31.1805262,12.7231124 L31.1998745,12.6518504 L31.2352856,12.6008834 L31.3049212,12.4916946 L31.4976742,11.9978196 L31.5846503,11.7466578 L31.6841298,11.5204745 L31.7033868,11.3778587 L31.7413533,11.2537012 L31.8109889,11.001621 L31.8445747,10.7366844 L31.8980563,10.4917672 L31.9489825,9.95748593 L31.9489825,9.81367629 L31.9489825,9.74700592 L31.967692,9.69695723 L32,9.44799942 L31.967692,9.05697678 L31.9142103,8.66852546 L31.8265041,8.29320618 L31.7413533,7.93845737 L31.5996178,7.56497474 L31.4429148,7.21187891 L31.2508007,6.85685461 L31.0575002,6.5371858 L30.7963893,6.19061008 L30.5352784,5.86717614 L30.2368399,5.55007864 L29.9247116,5.2475825 L29.5591929,4.92855652 L29.1699451,4.64231473 L28.7752214,4.3599299 L28.3505626,4.09784005 L27.8637519,3.81251658 L27.3930952,3.5644771 L26.4145455,3.11908965 L25.891046,2.91017079 L25.386256,2.72806701 L24.8466025,2.57167633 L24.3219166,2.44816166 L23.7442966,2.30462752 L23.186025,2.19479589 L22.0339793,2.03904804 L21.4209483,1.96677589 L20.8290909,1.93362437 L19.5869661,1.91452321 L18.5580378,1.93362437 L17.5782103,2.00497819 L16.6201954,2.11003453 L15.7100036,2.26679255 L14.7910503,2.46478334 L13.9132578,2.72806701 L13.0571865,3.03340996 L12.2551444,3.38843426 L11.4525547,3.72123511 L10.7568371,4.12906309 L10.0897768,4.54102352 L9.51772406,4.99770637 L8.97250339,5.46118481 L8.51863957,5.97388546 L8.10274225,6.4840148 L7.78696328,7.07082425 L7.59357148,7.51437505 L7.53890339,7.97509852 L7.56308877,8.24031068 L7.61100321,8.50396168 L7.69797932,8.75769478 L7.83788948,9.00288746 L7.99395365,9.2168571 L8.20349947,9.42577596 L8.31037148,9.51871041 L8.44845633,9.62688906 L8.74561711,9.81367629 L15.0292535,13.5041475 L15.2741191,13.630509 L15.5576813,13.7147194 L15.8318431,13.7700943 L16.1638674,13.7853385 L16.4460606,13.7700943 L16.5853319,13.7337287 L16.6543287,13.7147194 L16.7444991,13.7147194 L17.0199387,13.630509 L17.3015843,13.5041475 L23.2736399,10.0135037 L23.4104471,9.88778509 L23.5360285,9.78263692 L23.7442966,9.5305568 L23.8108292,9.38977763 L23.8307251,9.32099512 L23.8661362,9.26910978 L23.9003608,9.1254838 L23.9171537,8.98791877 L23.9003608,8.82583447 L23.8661362,8.681382 L23.7586253,8.41552702 L23.5490795,8.17060984 L23.3085034,7.97509852 L21.0877376,6.70514737 L16.1638674,9.56839178 L12.4335686,7.39021756 L12.7269875,7.10425126 L13.0571865,6.85685461 L13.7540906,6.41615061 L14.1233512,6.2028238 L14.544907,6.02889311 L14.9639073,5.86717614 L15.4159458,5.74145749 L15.8542032,5.60077016 L16.340375,5.49626482 L16.8302888,5.38680052 L17.3562524,5.31673235 L17.8747323,5.2475825 L18.4566417,5.21195151 L19.6398089,5.19285035 L19.6398089,5.19285035 Z" id="Fill" fill="#255688" sketch:type="MSShapeGroup"></path>
    </g>
</svg>