<?xml version="1.0" encoding="UTF-8" standalone="no"?>
<svg width="32px" height="28px" viewBox="0 0 32 28" version="1.1" xmlns="http://www.w3.org/2000/svg" xmlns:xlink="http://www.w3.org/1999/xlink" xmlns:sketch="http://www.bohemiancoding.com/sketch/ns">
    <!-- Generator: Sketch 3.3.2 (12043) - http://www.bohemiancoding.com/sketch -->
    <title>Fill</title>
    <desc>Created with Sketch.</desc>
    <defs></defs>
    <g id="切图" stroke="none" stroke-width="1" fill="none" fill-rule="evenodd" sketch:type="MSPage">
        <path d="M23.9036473,5.06932286 L24.5810577,6.21286915 L24.8420637,6.82843395 L24.9417884,7.15453587 L25.0062149,7.47976195 L25.0453873,7.80294442 L25.0346256,8.23341646 L24.959294,8.65513017 L24.7697454,9.18603109 L24.6094685,9.52818995 L24.2008125,10.1725113 L18.3009856,17.1828266 L18.008699,17.7197124 L17.7779691,18.2846248 L17.6166877,18.877272 L17.5580008,19.3246768 L17.5580008,19.7960211 L17.6225708,20.2991873 L17.7428144,20.810236 L17.9177271,21.2815803 L18.3956882,22.2044166 L19.5813357,23.8947747 L22.237169,27.086749 L29.0802909,27.0966751 L26.7285103,23.9684907 L26.5369528,23.5587467 L26.3913118,23.1311941 L26.2984745,22.7045173 L26.2651851,22.2641192 L26.2984745,21.8405078 L26.3835634,21.4367487 L26.5154295,21.0399962 L26.87903,20.2872176 L27.8515968,18.9229613 L30.724385,15.4625441 L32,13.6170175 L31.9756069,13.3167527 L31.911037,13.03634 L31.7780229,12.6673223 L31.4418288,11.9643201 L22.038724,0 L20.8735954,0.928821164 L23.9036473,5.06932286 L23.9036473,5.06932286 Z M8.10510551,5.06932286 L7.41793789,6.21286915 L7.15980163,6.82843395 L7.06610347,7.15453587 L6.99364165,7.47976195 L6.95848691,7.80294442 L6.97125741,8.23341646 L7.0504632,8.65513017 L7.22437156,9.18603109 L7.3935448,9.52818995 L7.79516981,10.1725113 L13.7030321,17.1828266 L13.9981885,17.7197124 L14.2327926,18.2846248 L14.3774292,18.877272 L14.4389859,19.3246768 L14.4389859,19.7960211 L14.3774292,20.2991873 L14.2543159,20.810236 L14.0782552,21.2815803 L13.6110558,22.2044166 L12.4205297,23.8947747 L9.88020483,27.1106885 L2.92157443,27.0966751 L5.27536388,23.9684907 L5.46591694,23.5587467 L5.61356686,23.1311941 L5.69564243,22.7045173 L5.73280601,22.2641192 L5.70052104,21.8405078 L5.61543222,21.4367487 L5.48643583,21.0399962 L5.11594788,20.2872176 L4.16103025,18.9229613 L1.27661941,15.4625441 L0,13.6170175 L0.0284107724,13.3167527 L0.0967114172,13.03634 L0.218963832,12.6673223 L0.558171236,11.9643201 L9.97103321,0 L11.0912499,0.904881722 L8.10510551,5.06932286 Z M21.6966468,7.78995289 L18.7759333,7.77798317 L16.1876833,5.33980937 L13.3491888,8.27822993 L16.3646049,11.1389933 L18.7641673,8.78825683 L21.682011,8.78825683 L21.6633575,9.05684569 L21.6135669,9.33317108 L21.5441183,9.60175994 L21.3603092,10.1357263 L21.1081995,10.6507162 L20.8207915,11.1131562 L20.2695077,11.8409736 L19.6223735,12.4495318 L18.8835499,12.9667113 L18.0731255,13.3444874 L17.2218067,13.5812543 L16.7741218,13.6428546 L16.3264369,13.661685 L15.6597882,13.6209587 L15.0138018,13.4678339 L14.3989525,13.2490216 L13.8084963,12.9408742 L13.2553472,12.5718565 L12.7607415,12.1194886 L12.3149219,11.6262485 L11.9328114,11.0743276 L11.6210103,10.4808046 L11.3843974,9.85721131 L11.2377519,9.1959572 L11.1830827,8.52579879 L11.2084802,8.06438064 L11.2602796,7.61493221 L11.3668918,7.16752739 L11.5017712,6.74187243 L11.7871703,6.10149235 L12.1468966,5.53278463 L12.5710494,5.02757481 L13.048006,4.58411124 L13.5602608,4.21217405 L14.1213018,3.90592436 L14.7038661,3.66127494 L15.3108235,3.49822398 L15.9384433,3.40275816 L16.5776857,3.38494955 L17.211045,3.44552801 L17.8336427,3.57281578 L18.4417481,3.77863659 L19.0300519,4.06897532 L19.5813357,4.44193431 L20.0984692,4.89240455 L20.5744213,5.40053381 L21.0417642,6.02003986 L21.2489619,6.34614177 L21.4277489,6.69019827 L21.5987875,7.17540989 L21.6633575,7.42108112 L21.6966468,7.78995289 Z" id="Fill" fill="#009F59" sketch:type="MSShapeGroup"></path>
    </g>
</svg>