<?xml version="1.0" encoding="UTF-8" standalone="no"?>
<svg width="21px" height="32px" viewBox="0 0 21 32" version="1.1" xmlns="http://www.w3.org/2000/svg" xmlns:xlink="http://www.w3.org/1999/xlink" xmlns:sketch="http://www.bohemiancoding.com/sketch/ns">
    <!-- Generator: Sketch 3.3.2 (12043) - http://www.bohemiancoding.com/sketch -->
    <title>Group</title>
    <desc>Created with Sketch.</desc>
    <defs></defs>
    <g id="切图" stroke="none" stroke-width="1" fill="none" fill-rule="evenodd" sketch:type="MSPage">
        <g id="Group" sketch:type="MSLayerGroup">
            <path d="M6.27364103,30.3638974 C5.44738462,30.8512821 4.70728205,31.1433846 3.91958974,31.1433846 C1.89620513,31.1433846 0.210051282,29.4867692 0.112410256,27.4921026 L4.05005128,25.1454359 L10.1809231,27.8867692 L6.27364103,30.3638974" id="Fill-1" fill="#96B7D7" sketch:type="MSShapeGroup"></path>
            <path d="M8.61620513,20.2748718 L5.68369231,18.9825641 C4.38235897,18.401641 3.14338462,17.9117949 3.14338462,16.4717949 C3.14338462,15.7275897 3.36738462,15.3353846 3.72348718,14.9489231 L9.91917949,17.6763077 L8.38646154,18.5632821 C7.96061538,18.8225641 7.66605128,19.0482051 7.66605128,19.3772308 C7.66605128,19.7275897 8.0705641,20.0254359 8.61620513,20.2748718" id="Fill-2" fill="#9CCD92" sketch:type="MSShapeGroup"></path>
            <path d="M11.486359,6.76430769 L8.49066667,8.58584615 C8.21989744,8.74584615 7.86625641,9.00348718 7.86625641,9.40389744 C7.86625641,9.85928205 8.55958974,10.2088205 9.17251282,10.5001026 L5.41620513,8.84430769 C4.31589744,8.35610256 3.2065641,7.80389744 3.2065641,6.46892308 C3.2065641,5.90933333 3.36738462,5.45476923 3.62666667,5.06584615 L11.7489231,0.105846154 C12.7236923,0.655589744 13.6664615,1.77066667 13.6664615,3.26892308 C13.6664615,4.86974359 12.8557949,5.94215385 11.486359,6.76430769" id="Fill-3" fill="#96B7D7" sketch:type="MSShapeGroup"></path>
            <path d="M17.8740513,12.6276923 L17.1314872,13.0527179 L10.9267692,10.3138462 L18.1357949,5.97333333 C19.1081026,6.53702564 20.0615385,7.64225641 20.0615385,9.13476923 C20.0615385,10.7388718 19.2754872,11.8408205 17.8740513,12.6276923" id="Fill-4" fill="#9CCD92" sketch:type="MSShapeGroup"></path>
            <path d="M12.6350769,17.8937436 L16.3060513,19.5076923 C17.6836923,20.1206154 18.1037949,20.8443077 18.1037949,21.7575385 C18.1037949,22.2769231 17.8125128,22.7971282 17.3924103,23.1548718 L11.2205128,20.4168205 L12.2642051,19.8293333 C13.1478974,19.3460513 13.4424615,19.0482051 13.4424615,18.7249231 C13.4424615,18.3876923 13.2340513,18.1653333 12.6350769,17.8937436" id="Fill-5" fill="#96B7D7" sketch:type="MSShapeGroup"></path>
            <path d="M19.1803077,31.4354872 C17.6172308,30.2326154 15.9515897,29.4211282 13.9273846,28.5029744 L4.576,24.3626667 C2.22358974,23.3156923 0.667076923,21.918359 0.667076923,19.5708718 C0.667076923,17.2857436 1.7665641,16.1813333 3.2065641,15.2722051 L3.72348718,14.9489231 C3.36738462,15.3353846 3.14338462,15.7275897 3.14338462,16.4717949 C3.14338462,17.9117949 4.38235897,18.401641 5.68369231,18.9825641 L16.5653333,23.7792821 C18.4598974,24.5924103 20.192,25.9913846 20.192,28.3700513 C20.192,29.6795897 19.6964103,30.8512821 19.1803077,31.4354872" id="Fill-6" fill="#08922F" sketch:type="MSShapeGroup"></path>
            <path d="M18.0726154,22.7306667 L17.3924103,23.1548718 C17.8125128,22.7971282 18.1037949,22.2769231 18.1037949,21.7567179 C18.1037949,20.8443077 17.6828718,20.1206154 16.3060513,19.5076923 L4.67364103,14.3827692 C2.32123077,13.3448205 0.859897436,12.0057436 0.859897436,9.66564103 C0.859897436,7.51261538 1.93312821,6.10297436 3.62666667,5.06584615 C3.36738462,5.45476923 3.2065641,5.90933333 3.2065641,6.46892308 C3.2065641,7.80389744 4.31589744,8.35610256 5.41620513,8.84430769 L16.7261538,13.8354872 C18.782359,14.7437949 20.4471795,16.1181538 20.4471795,18.6281026 C20.4471795,20.5874872 19.5380513,21.8207179 18.0726154,22.7306667" id="Fill-7" fill="#00679B" sketch:type="MSShapeGroup"></path>
        </g>
    </g>
</svg>