<?xml version="1.0" encoding="UTF-8" standalone="no"?>
<svg width="32px" height="32px" viewBox="0 0 32 32" version="1.1" xmlns="http://www.w3.org/2000/svg" xmlns:xlink="http://www.w3.org/1999/xlink" xmlns:sketch="http://www.bohemiancoding.com/sketch/ns">
    <!-- Generator: Sketch 3.3.2 (12043) - http://www.bohemiancoding.com/sketch -->
    <title>Fill</title>
    <desc>Created with Sketch.</desc>
    <defs></defs>
    <g id="切图" stroke="none" stroke-width="1" fill="none" fill-rule="evenodd" sketch:type="MSPage">
        <path d="M15.8701185,0.0147235251 C15.8701185,0.0147235251 22.8348204,-0.578919759 28.265272,5.77277095 C28.265272,5.77277095 31.7776683,9.6309649 31.9841088,15.300307 C31.9841088,15.300307 32.2787469,19.5747336 30.3306463,23.2262734 C28.3835149,26.8768384 26.2580499,28.8059354 22.7766682,30.556647 C19.293348,32.3083333 13.6865012,32.5461805 9.99770974,30.8247125 C6.30891826,29.1032445 4.03613423,27.2920963 1.88159312,23.3744405 C1.88159312,23.3744405 -1.01051245,18.387447 0.376418872,12.5991813 C0.376418872,12.5991813 0.731147638,9.15624523 3.85876984,5.41697489 C3.85876984,5.41697489 8.43341404,-0.223123702 15.8701185,0.0147235251 Z M17.6117786,3.57658323 C17.6117786,3.57658323 21.30057,3.87291748 24.2808732,6.63350497 C27.2621456,9.39409246 28.0287861,12.1546799 28.3534696,13.6383008 C28.678153,15.1228964 28.9146388,19.3671047 26.5536572,22.9884262 C24.1926756,26.6097477 19.7071982,28.2717539 17.6117786,28.4491646 L17.6117786,22.6316553 L20.3856412,22.6316553 C20.3856412,22.6316553 23.3368682,22.0380121 23.5142326,18.9518468 L23.5142326,12.7483232 C23.5142326,12.7483232 23.0412609,9.6309649 19.7663197,9.48279778 L17.6117786,9.48279778 L17.6117786,3.57658323 Z M14.3649442,3.57658323 L14.3649442,9.48279778 L11.8866889,9.48279778 C11.8866889,9.48279778 8.52161163,9.69042671 8.40433791,13.4306718 L8.40336871,18.892385 C8.40336871,18.892385 8.4925355,22.2466158 11.9748865,22.6316553 L14.3649442,22.6316553 L14.3649442,28.4501394 C14.3649442,28.4501394 8.52161163,28.1235868 5.30482263,22.4834882 C5.30482263,22.4834882 2.53095998,18.5063707 3.68140546,13.5495954 C4.83282014,8.59282024 7.5184852,6.60328667 8.04960914,6.09932349 C8.58073309,5.59438553 12.0194699,3.53856667 14.3649442,3.57658323 Z M12.2113723,12.8370286 L19.4997885,12.8370286 C19.4997885,12.8370286 20.1200792,12.7181049 20.1792007,13.4014283 L20.1792007,18.4761524 C20.1792007,18.4761524 20.3265197,19.2783994 19.7362743,19.1594757 L12.3586914,19.1594757 C12.3586914,19.1594757 11.768446,19.3076429 11.6792792,18.6252943 L11.6792792,13.4014283 C11.6792792,13.4014283 11.768446,12.8370286 12.2113723,12.8370286 Z" id="Fill" fill="#B7282E" sketch:type="MSShapeGroup"></path>
    </g>
</svg>