<?xml version="1.0" encoding="UTF-8" standalone="no"?>
<svg width="32px" height="32px" viewBox="0 0 32 32" version="1.1" xmlns="http://www.w3.org/2000/svg" xmlns:xlink="http://www.w3.org/1999/xlink" xmlns:sketch="http://www.bohemiancoding.com/sketch/ns">
    <!-- Generator: Sketch 3.3.2 (12043) - http://www.bohemiancoding.com/sketch -->
    <title>icon_zhongxin</title>
    <desc>Created with Sketch.</desc>
    <defs></defs>
    <g id="切图" stroke="none" stroke-width="1" fill="none" fill-rule="evenodd" sketch:type="MSPage">
        <path d="M8.83655904,2.13708876 L8.88981882,1.92929665 L8.9415569,1.82464223 L8.99329497,1.71998781 L9.15155262,1.56374938 L9.30828855,1.45909496 L10.0919682,1.1466636 L10.8756479,0.834217066 L11.2941176,0.729562646 L11.7125874,0.573324214 L12.5495268,0.365547272 L13.3864663,0.20930884 L13.8566741,0.157755163 L14.2751438,0.10465442 L15.1638214,0 L16.0524989,0 L16.9411765,0 L17.4113843,0.0531007427 L17.8831138,0.10465442 L18.7185316,0.20930884 L19.6087308,0.365547272 L20.4441486,0.573324214 L21.281088,0.834217066 L22.0662894,1.1466636 L22.8499691,1.51218053 L23.006705,1.61685012 L23.163441,1.77305822 L23.2684388,1.92929665 L23.2684388,2.03395107 L23.3201769,2.13708876 L23.3201769,2.29329686 L23.2684388,2.44952012 L23.2167007,2.55417454 L23.163441,2.65882896 L23.0584431,2.76196665 L22.954967,2.81506739 L22.6399734,2.97127549 L22.2230253,3.1790676 L21.7512958,3.43994528 L21.2293499,3.80549256 L20.9676161,4.01328467 L20.6541443,4.27414718 L20.3406724,4.63816256 L20.0272005,4.95212582 L19.7654667,5.26457235 L19.555471,5.57703404 L19.1902611,6.2019271 L18.8767892,6.82832172 L18.7185316,7.4016611 L18.5617956,7.92188458 L18.4583195,8.33898553 L18.4050597,8.65144722 L18.4050597,31.84226 L17.829854,31.9469144 L17.2546483,32 L16.0524989,32 L14.8503495,32 L14.2234058,31.8953456 L13.6482001,31.84226 L13.6482001,9.01696416 L13.6482001,8.65144722 L13.6482001,8.49520879 L13.5949403,8.13119342 L13.4914642,7.66102206 L13.3332065,7.19235226 L13.1247325,6.67211363 L12.8629987,6.09878941 L12.7062628,5.78482615 L12.4977888,5.47236446 L12.287793,5.21301867 L12.079319,4.89905541 L11.7658472,4.58660888 L11.5041134,4.27414718 L11.1906415,4.01328467 L10.9289077,3.80549256 L10.6154358,3.59618372 L10.353702,3.43994528 L9.88349422,3.1790676 L9.51676257,2.97127549 L9.20329069,2.81506739 L9.09829283,2.76196665 L8.99329497,2.65882896 L8.88981882,2.55417454 L8.83655904,2.44952012 L8.83655904,2.29329686 L8.83655904,2.13708876 L8.83655904,2.13708876 Z M23.3201769,30.2800122 L22.4832374,30.6971131 L21.5945599,31.0611437 L20.6541443,31.373575 L19.7654667,31.5828839 L19.7654667,8.75610164 L19.8172048,8.18277743 L19.9739407,7.66102206 L20.1306767,7.19235226 L20.2874126,6.77525132 L20.5491464,6.3581352 L20.7591421,5.99413499 L21.0193542,5.68168846 L21.281088,5.36771004 L21.5945599,5.10836425 L21.8562937,4.8474714 L22.3797613,4.48345602 L22.6399734,4.32573119 L22.9017072,4.22259351 L23.1117029,4.11793909 L23.3201769,4.01328467 L23.3201769,30.2800122 L23.3201769,30.2800122 Z M24.6273242,2.44952012 L25.3592658,2.97127549 L26.0912074,3.4915293 L26.7714109,4.06635507 L27.3983547,4.63816256 L28.0268201,5.26457235 L28.548766,5.94255098 L28.8622379,6.30658152 L29.1239717,6.67211363 L29.5941795,7.4016611 L30.065909,8.13119342 L30.4843787,8.91230974 L30.8495887,9.74652681 L31.1630605,10.5807135 L31.4765324,11.4133987 L31.6865281,12.2991694 L31.8950021,13.1864569 L31.9482619,13.6551267 L32,14.1237965 L31.9482619,14.2800198 L31.8432641,14.436243 L31.6865281,14.6440503 L31.4765324,14.8017903 L31.3730563,14.904928 L31.2163203,14.9580136 L31.0580627,15.0095673 L30.8495887,15.0611361 L30.6395929,15.0611361 L30.3793809,15.0095673 L30.1693851,14.9580136 L29.9609111,14.904928 L29.7524371,14.8017903 L29.5424414,14.6971359 L29.2807076,14.4893286 L29.1239717,14.3315886 L29.0204955,14.2284509 L28.8104998,13.9675732 L28.7055019,13.7067107 L28.548766,13.394249 L28.4970279,13.3426954 L28.4437681,13.2380409 L28.340292,13.1864569 L28.2352941,13.1864569 L28.1302963,13.1864569 L28.0268201,13.2380409 L27.8700842,13.3426954 L27.7650863,13.5504723 L27.5550906,13.8629188 L27.2416187,14.3846742 L27.1366209,14.7487047 L26.9798849,15.1142217 L26.9281468,15.3750994 L26.9281468,15.5829066 L26.8764088,16.1046468 L26.8764088,16.4170934 L26.9281468,16.7295551 L27.0331447,17.095072 L27.1898806,17.4590874 L27.3466166,17.8231179 L27.3983547,18.0324116 L27.5033525,18.1886349 L27.7650863,18.5010814 L27.9735603,18.7619742 L28.0785582,18.8150598 L28.183556,18.8666287 L28.2352941,18.8666287 L28.340292,18.8666287 L28.3920301,18.8150598 L28.4970279,18.7619742 L28.6020258,18.605751 L28.7587617,18.2402037 L28.9672357,17.9808579 L29.1757097,17.6683962 L29.3339674,17.5637418 L29.4891816,17.4075185 L29.6474393,17.3028641 L29.8559133,17.1982097 L30.065909,17.095072 L30.274383,17.0419864 L30.5361168,16.9904327 L30.7978506,16.9904327 L31.0063246,17.0419864 L31.2163203,17.095072 L31.4247943,17.2512953 L31.6332683,17.354433 L31.7900043,17.5106562 L31.8950021,17.6683962 L32,17.7715491 L32,17.8762035 L31.8950021,18.8150598 L31.6865281,19.6993138 L31.5815303,20.1163996 L31.4765324,20.5865861 L31.1630605,21.4192713 L30.8495887,22.2534732 L30.4843787,23.0876751 L30.065909,23.8688066 L29.5941795,24.5998556 L29.1239717,25.3278864 L28.6020258,26.0574339 L28.2870322,26.3713971 L28.0268201,26.7354277 L27.3983547,27.3618223 L26.7714109,27.9867305 L26.0912074,28.5084707 L25.3592658,29.0802782 L24.6273242,29.5504647 L24.6273242,2.44952012 L24.6273242,2.44952012 Z M7.47767369,29.5504647 L6.69399401,28.9771557 L6.27552428,28.716278 L5.85705454,28.4038163 L5.49032289,28.0913849 L5.12511294,27.7258528 L4.75838128,27.4133911 L4.44490941,27.0478742 L3.76622759,26.3183115 L3.45123401,25.9012258 L3.13776214,25.5371952 L2.87602834,25.1200943 L2.56255647,24.7030085 L2.04061059,23.8688066 L1.83061487,23.4001216 L1.56888107,22.9830358 L1.20367112,22.0456963 L0.993675401,21.5770113 L0.836939465,21.1068248 L0.680203528,20.6381701 L0.523467592,20.1163996 L0.418469732,19.647745 L0.31499358,19.1274912 L0.158257644,18.0839804 L0.0532597841,17.0419864 L0,16.0000076 L0,15.478237 L0.0532597841,14.9580136 L0.0532597841,14.436243 L0.158257644,13.9145028 L0.20999572,13.394249 L0.31499358,12.8724937 L0.523467592,11.8835852 L0.836939465,10.8931601 L0.993675401,10.4229735 L1.20367112,9.95431891 L1.56888107,9.01696416 L1.83061487,8.59986321 L2.04061059,8.13119342 L2.56255647,7.29700668 L3.13776214,6.46278962 L3.76622759,5.68168846 L4.44490941,4.95212582 L5.12511294,4.27414718 L5.85705454,3.59618372 L6.69399401,3.0228595 L7.47767369,2.44952012 L7.47767369,14.1753654 L7.42593561,14.3315886 L7.37267583,14.4893286 L7.21593989,14.6440503 L7.05920396,14.8017903 L6.85072994,14.904928 L6.74573208,14.9580136 L6.58899615,15.0095673 L6.43226021,15.0611361 L6.27552428,15.0611361 L6.11878834,15.0611361 L5.90879262,15.0095673 L5.70031861,14.9580136 L5.43858481,14.904928 L5.28184888,14.8017903 L5.07185316,14.6971359 L4.75838128,14.4893286 L4.65490513,14.3315886 L4.54990727,14.2284509 L4.33991155,13.9675732 L4.2364354,13.7067107 L4.07969946,13.394249 L4.02643968,13.3426954 L3.92144182,13.2380409 L3.86970374,13.1864569 L3.76622759,13.1864569 L3.66122973,13.1864569 L3.55623187,13.2380409 L3.39949593,13.3426954 L3.24276,13.5504723 L3.03276428,13.8629188 L2.77255219,14.3846742 L2.61581625,14.7487047 L2.51081839,15.1142217 L2.45908032,15.3750994 L2.45908032,15.5829066 L2.40582053,16.1046468 L2.40582053,16.4170934 L2.45908032,16.7295551 L2.56255647,17.095072 L2.66755433,17.4590874 L2.82429027,17.8231179 L2.92928813,18.0324116 L3.03276428,18.1886349 L3.24276,18.5010814 L3.50449379,18.7619742 L3.60796995,18.8150598 L3.71296781,18.8666287 L3.76622759,18.8666287 L3.86970374,18.8666287 L3.92144182,18.8150598 L3.9747016,18.7619742 L4.13143754,18.605751 L4.28817347,18.2402037 L4.44490941,17.9808579 L4.70664321,17.6683962 L4.86337914,17.5637418 L5.02011508,17.4075185 L5.17685102,17.3028641 L5.33358695,17.1982097 L5.54358267,17.095072 L5.80379476,17.0419864 L6.01379048,16.9904327 L6.27552428,16.9904327 L6.48399829,17.0419864 L6.69399401,17.095072 L6.90246802,17.1982097 L7.05920396,17.3028641 L7.32093775,17.5637418 L7.47767369,17.7715491 L7.47767369,29.5504647 L7.47767369,29.5504647 Z M12.3410528,31.5828839 L11.3991155,31.3220062 L10.510438,31.0611437 L10.0919682,30.8533516 L9.6734985,30.6971131 L9.25502877,30.4878043 L8.83655904,30.2800122 L8.83655904,4.01328467 L9.20329069,4.16949276 L9.72523658,4.43037045 L9.98697037,4.63816256 L10.2487042,4.79591772 L10.510438,5.00370983 L10.7721718,5.26457235 L11.0339056,5.57703404 L11.2941176,5.88948057 L11.5041134,6.2019271 L11.7658472,6.56744404 L11.9225831,6.98456016 L12.079319,7.45321478 L12.236055,7.92188458 L12.3410528,8.49520879 L12.3410528,31.5828839 L12.3410528,31.5828839 Z" id="icon_zhongxin" fill="#ED1C24" sketch:type="MSShapeGroup"></path>
    </g>
</svg>