<?xml version="1.0" encoding="utf-8"?>
<!-- Generator: Adobe Illustrator 16.0.0, SVG Export Plug-In . SVG Version: 6.00 Build 0)  -->
<!DOCTYPE svg PUBLIC "-//W3C//DTD SVG 1.1//EN" "http://www.w3.org/Graphics/SVG/1.1/DTD/svg11.dtd">
<svg version="1.1" xmlns="http://www.w3.org/2000/svg" xmlns:xlink="http://www.w3.org/1999/xlink" x="0px" y="0px" width="100px"
	 height="100px" viewBox="0 0 100 100" enable-background="new 0 0 100 100" xml:space="preserve">
<g id="图层_1">
	<path display="none" fill="#F15A24" d="M100,100c0,0-0.013-58.375-0.013-84c-12.499,0-12.499,24.002-24.998,24.002
		C62.486,40.002,62.486,16,49.984,16c-12.499,0-12.499,24.002-24.998,24.002C12.491,40.002,12.491,16-0.004,16
		C-0.004,36.879,0,100,0,100H100z"/>
</g>
<g id="图层_2">
	<path fill="#F15A24" d="M99.945,120c0,0,0.072-106.964,0.072-113.185c-12.502,0-12.502-6-25.004-6c-12.498,0-12.498,6-24.998,6
		s-12.5-6-24.998-6c-12.5,0-12.5,6-24.998,6C0.021,12.814,0,120,0,120H99.945z"/>
	<path fill="#F15A24" d="M-0.055,120c0,0,0.072-106.964,0.072-113.185c-12.502,0-12.502-6-25.004-6c-12.498,0-12.498,6-24.998,6
		s-12.5-6-24.998-6c-12.5,0-12.5,6-24.998,6C-99.979,12.814-100,120-100,120H-0.055z"/>
</g>
</svg>
