<?xml version="1.0" encoding="utf-8"?>
<!-- Generator: Adobe Illustrator 19.0.0, SVG Export Plug-In . SVG Version: 6.00 Build 0)  -->
<svg version="1.1" id="图层_1" xmlns:sketch="http://www.bohemiancoding.com/sketch/ns"
	 xmlns="http://www.w3.org/2000/svg" xmlns:xlink="http://www.w3.org/1999/xlink" x="0px" y="0px" viewBox="-1111 2817.3 44 36"
	 style="enable-background:new -1111 2817.3 44 36;" xml:space="preserve">
<style type="text/css">
	.st0{fill:#999999;}
	.st1{fill:#FFFFFF;}
</style>
<title>Oval 97 + Shape</title>
<desc>Created with Sketch.</desc>
<path id="Oval-97" sketch:type="MSShapeGroup" class="st0" d="M-1080.7,2833.2c1.1-1.6,1.7-3.5,1.7-5.6c0-5.5-4.5-10-10-10
	s-10,4.5-10,10c0,2.3,0.8,4.5,2.1,6.2l7.9,11.8L-1080.7,2833.2L-1080.7,2833.2z M-1089,2833.5c3.3,0,6-2.7,6-6s-2.7-6-6-6
	s-6,2.7-6,6S-1092.3,2833.5-1089,2833.5z M-1089,2833.5c3.3,0,6-2.7,6-6s-2.7-6-6-6s-6,2.7-6,6S-1092.3,2833.5-1089,2833.5z"/>
<path id="Shape" sketch:type="MSShapeGroup" class="st0" d="M-1069.7,2851.1l-38.5,0.1l2.8-13.3l-2,1.6h8.8v-2h-8.8l-3.1,15.6h43.2
	l-3.3-15.6h-9v2h9l-2-1.6L-1069.7,2851.1z"/>
<circle class="st1" cx="-1089" cy="2827.5" r="6"/>
</svg>
