<?xml version="1.0" encoding="utf-8"?>
<!-- Generator: Adobe Illustrator 19.0.0, SVG Export Plug-In . SVG Version: 6.00 Build 0)  -->
<svg version="1.1" id="图层_1" xmlns:sketch="http://www.bohemiancoding.com/sketch/ns"
	 xmlns="http://www.w3.org/2000/svg" xmlns:xlink="http://www.w3.org/1999/xlink" x="0px" y="0px" viewBox="-282 400.9 31 40"
	 style="enable-background:new -282 400.9 31 40;" xml:space="preserve">
<style type="text/css">
	.st0{fill:#999999;}
</style>
<title>Group</title>
<desc>Created with Sketch.</desc>
<path id="Shape_3_" sketch:type="MSShapeGroup" class="st0" d="M-278,420.9L-278,420.9l1-1v4l-1-1h5l-1,1v-4l1,1H-278z M-278,419.9
	h5v4h-5V419.9z M-272,420.9l1-1v4l-1-1h5l-1,1v-4l1,1H-272z M-272,419.9h5v4h-5V419.9z M-278,426.9l1-1v4l-1-1h5l-1,1v-4l1,1H-278z
	 M-278,425.9h5v4h-5V425.9z M-272,426.9l1-1v4l-1-1h5l-1,1v-4l1,1H-272z M-272,425.9h5v4h-5V425.9z M-278,432.9l1-1v4l-1-1h5l-1,1
	v-4l1,1H-278z M-278,431.9h5v4h-5V431.9z M-272,432.9l1-1v4l-1-1h5l-1,1v-4l1,1H-272z M-272,431.9h5v4h-5V431.9L-272,431.9z"/>
<path id="Shape" sketch:type="MSShapeGroup" class="st0" d="M-253,440.9L-253,440.9l-19-0.1l0-2l21,0.1v-38h-21v15.4h2v-15.4l-2,2
	h21l-2-2V440.9z M-253,440.9L-253,440.9l2,0v-2L-253,440.9z M-251,439.9v1l-2,0l0,0l2-2V439.9v-1h-2v2h2V439.9z"/>
<path id="Shape_1_" sketch:type="MSShapeGroup" class="st0" d="M-268,407.9L-268,407.9l1-1v4l-1-1h5l-1,1v-4l1,1H-268z M-268,406.9
	h5v4h-5V406.9z M-260,407.9l1-1v4l-1-1h5l-1,1v-4l1,1H-260z M-260,406.9h5v4h-5V406.9z M-268,413.9l1-1v4l-1-1h5l-1,1v-4l1,1H-268z
	 M-268,412.9h5v4h-5V412.9z M-260,413.9l1-1v4l-1-1h5l-1,1v-4l1,1h-3.6H-260z M-260,412.9h1.4h3.6v4h-5V412.9z M-260,419.9l1-1v4
	l-1-1h5l-1,1v-4l1,1H-260z M-260,418.9h5v4h-5V418.9z M-260,425.9l1-1v4l-1-1h5l-1,1v-4l1,1H-260z M-260,424.9h5v4h-5V424.9z
	 M-260,431.9l1-1v4l-1-1h5l-1,1v-4l1,1H-260z M-260,430.9h5v4h-5V430.9L-260,430.9z"/>
<path id="Shape_2_" sketch:type="MSShapeGroup" class="st0" d="M-282,417.9L-282,417.9l2-2v25l-2-2h19l-2,2v-25l2,2H-282z
	 M-282,415.9h19v25h-19V415.9L-282,415.9z"/>
</svg>
