<?xml version="1.0" encoding="UTF-8" standalone="no"?>
<svg width="45px" height="30px" viewBox="0 0 45 30" version="1.1" xmlns="http://www.w3.org/2000/svg" xmlns:xlink="http://www.w3.org/1999/xlink" xmlns:sketch="http://www.bohemiancoding.com/sketch/ns">
    <!-- Generator: Sketch 3.3.2 (12043) - http://www.bohemiancoding.com/sketch -->
    <title>Group</title>
    <desc>Created with Sketch.</desc>
    <defs></defs>
    <g id="切图" stroke="none" stroke-width="1" fill="none" fill-rule="evenodd" sketch:type="MSPage">
        <g id="Artboard-1" sketch:type="MSArtboardGroup" transform="translate(-498.000000, -484.000000)" fill="#999999">
            <g id="Group" sketch:type="MSLayerGroup" transform="translate(498.000000, 484.000000)">
                <path d="M0,2 L0,2 L2,0 L2,30 L0,28 L45,28 L43,30 L43,0 L45,2 L0,2 Z M0,0 L45,0 L45,30 L0,30 L0,0 L0,0 Z" id="Shape" sketch:type="MSShapeGroup"></path>
                <rect id="Rectangle-111" sketch:type="MSShapeGroup" x="2" y="4" width="42" height="6.91308609"></rect>
                <path d="M5,26 L7,26 L8,26 L8,24 L7,24 L5,24 L4,24 L4,26 L5,26 L5,26 Z" id="Shape" sketch:type="MSShapeGroup"></path>
                <path d="M10,26 L12,26 L13,26 L13,24 L12,24 L10,24 L9,24 L9,26 L10,26 L10,26 Z" id="Shape" sketch:type="MSShapeGroup"></path>
                <path d="M15,26 L40,26 L41,26 L41,24 L40,24 L15,24 L14,24 L14,26 L15,26 L15,26 Z" id="Shape" sketch:type="MSShapeGroup"></path>
            </g>
        </g>
    </g>
</svg>