<?xml version="1.0" encoding="utf-8"?>
<!-- Generator: Adobe Illustrator 16.0.0, SVG Export Plug-In . SVG Version: 6.00 Build 0)  -->
<!DOCTYPE svg PUBLIC "-//W3C//DTD SVG 1.1//EN" "http://www.w3.org/Graphics/SVG/1.1/DTD/svg11.dtd">
<svg version="1.1" id="图层_1" xmlns:sketch="http://www.bohemiancoding.com/sketch/ns"
	 xmlns="http://www.w3.org/2000/svg" xmlns:xlink="http://www.w3.org/1999/xlink" x="0px" y="0px" width="30px" height="30px"
	 viewBox="0.5 0.5 30 30" enable-background="new 0.5 0.5 30 30" xml:space="preserve">
<path id="Clear" sketch:type="MSShapeGroup" fill="none" stroke="#FFFFFF" stroke-width="2" stroke-miterlimit="10" d="
	M15.555,29.099c7.486,0,13.555-6.066,13.555-13.55C29.109,8.066,23.041,2,15.555,2C8.069,2,2.001,8.066,2.001,15.549
	C2.001,23.032,8.069,29.099,15.555,29.099z"/>
<path id="Clear_1_" sketch:type="MSShapeGroup" fill="#FFFFFF" d="M14.618,15.143l-5-5C9.419,9.944,9.423,9.63,9.62,9.435l0.82-0.82
	c0.191-0.191,0.513-0.197,0.708-0.002l5,5.001l5.003-5.003c0.198-0.198,0.512-0.194,0.708,0.002l0.82,0.82
	c0.19,0.191,0.196,0.513,0.001,0.708l-5.003,5.002l5.002,5.001c0.197,0.198,0.193,0.512-0.002,0.708l-0.82,0.82
	c-0.191,0.191-0.514,0.197-0.709,0.002l-5-5.001l-5.003,5.003c-0.198,0.198-0.512,0.193-0.708-0.002l-0.82-0.82
	c-0.191-0.191-0.196-0.513-0.001-0.707L14.618,15.143z"/>
</svg>
