<?xml version="1.0" encoding="UTF-8" standalone="no"?>
<svg width="40px" height="41px" viewBox="0 0 40 41" version="1.1" xmlns="http://www.w3.org/2000/svg" xmlns:xlink="http://www.w3.org/1999/xlink" xmlns:sketch="http://www.bohemiancoding.com/sketch/ns">
    <!-- Generator: Sketch 3.3.2 (12043) - http://www.bohemiancoding.com/sketch -->
    <title>Group</title>
    <desc>Created with Sketch.</desc>
    <defs></defs>
    <g id="切图" stroke="none" stroke-width="1" fill="none" fill-rule="evenodd" sketch:type="MSPage">
        <g id="Artboard-1" sketch:type="MSArtboardGroup" transform="translate(-777.000000, -428.000000)">
            <g id="Group" sketch:type="MSLayerGroup" transform="translate(777.000000, 428.000000)">
                <path d="M5,14 L5,14 L7,12 L7,40.9973755 L5,38.9973755 L35,38.9973755 L33,40.9973755 L33,12 L35,14 L5,14 Z M5,12 L35,12 L35,40.9973755 L5,40.9973755 L5,12 L5,12 Z" id="Shape" fill="#999999" sketch:type="MSShapeGroup"></path>
                <path d="M10,26 L10,26 L11,25 L11,29 L10,28 L18.9851074,28 L17.9851074,29 L17.9851074,25 L18.9851074,26 L10,26 Z M10,25 L18.9851074,25 L18.9851074,29 L10,29 L10,25 L10,25 Z" id="Shape" fill="#999999" sketch:type="MSShapeGroup"></path>
                <path d="M10,32 L10,32 L11,31 L11,35 L10,34 L18.9851074,34 L17.9851074,35 L17.9851074,31 L18.9851074,32 L10,32 Z M10,31 L18.9851074,31 L18.9851074,35 L10,35 L10,31 L10,31 Z" id="Shape" fill="#999999" sketch:type="MSShapeGroup"></path>
                <path d="M10,20 L10,20 L11,19 L11,23 L10,22 L18.9851074,22 L17.9851074,23 L17.9851074,19 L18.9851074,20 L10,20 Z M10,19 L18.9851074,19 L18.9851074,23 L10,23 L10,19 L10,19 Z" id="Shape" fill="#999999" sketch:type="MSShapeGroup"></path>
                <path d="M21,26 L21,26 L22,25 L22,29 L21,28 L29.9851074,28 L28.9851074,29 L28.9851074,25 L29.9851074,26 L21,26 Z M21,25 L29.9851074,25 L29.9851074,29 L21,29 L21,25 L21,25 Z" id="Shape" fill="#999999" sketch:type="MSShapeGroup"></path>
                <path d="M21,32 L21,32 L22,31 L22,35 L21,34 L29.9851074,34 L28.9851074,35 L28.9851074,31 L29.9851074,32 L21,32 Z M21,31 L29.9851074,31 L29.9851074,35 L21,35 L21,31 L21,31 Z" id="Shape" fill="#999999" sketch:type="MSShapeGroup"></path>
                <path d="M21,20 L21,20 L22,19 L22,23 L21,22 L29.9851074,22 L28.9851074,23 L28.9851074,19 L29.9851074,20 L21,20 Z M21,19 L29.9851074,19 L29.9851074,23 L21,23 L21,19 L21,19 Z" id="Shape" fill="#999999" sketch:type="MSShapeGroup"></path>
                <path d="M5.35466648,3.00191592 L34.9359399,2.98695481 L33.9741398,2.26247861 L37.1256214,13.2579085 L38.0869157,11.9823849 L1.75688717,11.9823848 L2.70719048,13.2937104 L6.30446402,2.31324165 L5.35466648,3.00191592 L5.35466648,3.00191592 Z M5.35365495,1.00191618 L4.62935161,1.00228251 L4.40385741,1.69059046 L0.806583863,12.6710592 L0.376985003,13.9823848 L1.75688717,13.9823848 L38.0869157,13.9823849 L39.4137973,13.9823849 L39.04821,12.7068612 L35.8967284,1.71143127 L35.6889716,0.986573699 L34.9349284,0.986955066 L5.35365495,1.00191618 L5.35365495,1.00191618 Z" id="Shape" fill="#979797" sketch:type="MSShapeGroup"></path>
            </g>
        </g>
    </g>
</svg>