<?xml version="1.0" encoding="utf-8"?>
<!-- Generator: Adobe Illustrator 19.0.0, SVG Export Plug-In . SVG Version: 6.00 Build 0)  -->
<svg version="1.1" id="图层_1" xmlns="http://www.w3.org/2000/svg" xmlns:xlink="http://www.w3.org/1999/xlink" x="0px" y="0px"
	 viewBox="0 0 42.2 39.5" style="enable-background:new 0 0 42.2 39.5;" xml:space="preserve">
<style type="text/css">
	.st0{fill:#999;}
</style>
<g id="user135.psd">
	<g id="Forma_1_1_">
		<g id="XMLID_30_">
			<path id="XMLID_31_" class="st0" d="M38.4,30.9l-1.6-3.2c-1.1-2.2-3.8-3.6-5.9-3.8c-0.7-0.1-2.2-0.3-3.4-0.6
				c-1-0.2-1.5-0.4-1.8-0.5c0.1-0.3,0.2-0.6,0.4-0.9c2.4-1.9,3.8-5.1,3.8-8.5c0-5.7-3.9-10.3-8.6-10.3c-4.7,0-8.6,4.6-8.6,10.3
				c0,3.4,1.4,6.6,3.8,8.5c0.2,0.3,0.4,0.6,0.4,0.9c-0.3,0.1-0.9,0.3-1.9,0.5c-1.3,0.3-2.7,0.6-3.4,0.6c-2.1,0.2-4.8,1.6-5.9,3.9
				l-1.6,3.3c-0.6,1.2-0.6,2.6,0,3.5c0.7,1.1,1.8,1.8,2.9,1.8h28.3c1.1,0,2.2-0.7,2.9-1.8C39,33.7,39,32.1,38.4,30.9z M37,33.8
				c-0.3,0.5-0.9,1.1-1.6,1.1H7.2c-0.7,0-1.3-0.6-1.6-1.1c-0.3-0.4-0.2-1.3,0.1-1.9l1.6-3.3c0.8-1.7,3-2.8,4.6-2.9
				c0.9-0.1,2.5-0.4,3.6-0.7c2.3-0.5,2.7-0.9,2.9-1c0.2-0.2,0.3-0.4,0.3-0.6c0-0.8-0.3-1.7-0.9-2.4c0-0.1-0.1-0.1-0.2-0.2
				c-2.1-1.6-3.3-4.3-3.3-7.3c0-4.8,3.1-8.6,7-8.6c3.9,0,7,3.9,7,8.6c0,3-1.2,5.7-3.3,7.3c-0.1,0-0.1,0.1-0.1,0.1
				c-0.6,0.7-0.9,1.5-0.9,2.4c0,0.2,0.1,0.5,0.3,0.6c0.1,0.1,0.5,0.5,2.9,1c1.3,0.3,2.8,0.6,3.6,0.6c1.7,0.1,3.8,1.3,4.6,2.9
				l1.6,3.2C37.3,32.4,37.3,33.3,37,33.8z"/>
		</g>
	</g>
</g>
</svg>
