<?xml version="1.0" encoding="utf-8"?>
<!-- Generator: Adobe Illustrator 19.0.0, SVG Export Plug-In . SVG Version: 6.00 Build 0)  -->
<svg version="1.1" id="图层_1" xmlns="http://www.w3.org/2000/svg" xmlns:xlink="http://www.w3.org/1999/xlink" x="0px" y="0px"
	 viewBox="0 0 52.2 39.5" style="enable-background:new 0 0 52.2 39.5;" xml:space="preserve">
<style type="text/css">
	.st0{fill:#999;}
</style>
<g id="user14.psd">
	<g id="Forma_1">
		<g id="XMLID_72_">
			<path id="XMLID_74_" class="st0" d="M21.6,26.2c-0.6-0.1-1.2,0.2-1.3,0.9c-0.1,0.6,0.2,1.2,0.9,1.3c5.7,1.3,11.1,3.3,11.5,4.4
				v1.6h-28l0-1.5c0.4-1.1,5.7-3.1,11.5-4.4c0.5-0.1,0.9-0.6,0.9-1.1v-2.1c0.3,0,0.6,0.1,1,0.1h1.4c4,0,7.2-3.2,7.2-7.2v-7.9
				c0-4-3.2-7.2-7.2-7.2h-1.4c-4,0-7.2,3.2-7.2,7.2V18c0,2.8,1.6,5.3,4,6.5v1.9c-5,1.2-12.4,3.4-12.4,6.4v2.7c0,0.6,0.5,1.1,1.1,1.1
				h30.3c0.6,0,1.1-0.5,1.1-1.1l0-2.7C34.9,29.6,26.5,27.3,21.6,26.2z M12.9,18v-7.9c0-2.7,2.2-5,5-5h1.4c2.7,0,5,2.2,5,5V18
				c0,2.7-2.2,5-5,5h-1.4C15.1,23,12.9,20.8,12.9,18z M33.8,8h14.6c0.6,0,1.1-0.5,1.1-1.1s-0.5-1.1-1.1-1.1H33.8
				c-0.6,0-1.1,0.5-1.1,1.1C32.7,7.5,33.2,8,33.8,8z M48.5,13H33.8c-0.6,0-1.1,0.5-1.1,1.1c0,0.6,0.5,1.1,1.1,1.1h14.6
				c0.6,0,1.1-0.5,1.1-1.1C49.6,13.5,49.1,13,48.5,13z M48.5,20.2H33.8c-0.6,0-1.1,0.5-1.1,1.1c0,0.6,0.5,1.1,1.1,1.1h14.6
				c0.6,0,1.1-0.5,1.1-1.1C49.6,20.7,49.1,20.2,48.5,20.2z"/>
		</g>
	</g>
</g>
</svg>
